<svg width="36" height="35" viewBox="0 0 36 35" fill="none" xmlns="http://www.w3.org/2000/svg">
<path d="M19.2344 34.0415H2.52045C1.45639 34.0415 0.59436 33.2001 0.59436 32.1626V1.87882C0.59436 0.841002 1.45652 0 2.52045 0H33.5661C34.6298 0 35.4921 0.841002 35.4921 1.87882V32.1626C35.4921 33.2002 34.6296 34.0415 33.5661 34.0415H24.6733V20.8588H29.2094L29.8886 15.7212H24.6733V12.4412C24.6733 10.9538 25.0967 9.94013 27.2833 9.94013L30.0722 9.93894V5.34387C29.5899 5.28126 27.9344 5.14138 26.0083 5.14138C21.9873 5.14138 19.2344 7.5356 19.2344 11.9324V15.7212H14.6866V20.8588H19.2344V34.0415Z" fill="#625A5A"/>
</svg>
