<svg width="36" height="30" viewBox="0 0 36 30" fill="none" xmlns="http://www.w3.org/2000/svg">
<path d="M35.5529 4.19465C34.2706 4.76426 32.89 5.14946 31.4418 5.32157C32.9207 4.43643 34.0555 3.0329 34.5901 1.36096C33.2055 2.18054 31.6753 2.77678 30.0408 3.09641C28.738 1.70518 26.8761 0.836426 24.8154 0.836426C20.8642 0.836426 17.6585 4.04303 17.6585 7.9975C17.6585 8.55891 17.7199 9.10393 17.8428 9.62846C11.8924 9.32931 6.61789 6.48128 3.08449 2.14365C2.46794 3.20501 2.11562 4.43643 2.11562 5.74775C2.11562 8.23108 3.37945 10.4235 5.3008 11.7081C4.12915 11.6733 3.02304 11.3475 2.05622 10.8148V10.9029C2.05622 14.3738 4.52448 17.269 7.80184 17.9246C7.20167 18.0927 6.56873 18.1767 5.91531 18.1767C5.45443 18.1767 5.00379 18.1336 4.5675 18.0496C5.47901 20.8936 8.12138 22.9651 11.2554 23.0204C8.80553 24.9423 5.71662 26.0877 2.36347 26.0877C1.78584 26.0877 1.21435 26.0549 0.655151 25.9893C3.82395 28.0178 7.58881 29.2041 11.6302 29.2041C24.8011 29.2041 32.001 18.2935 32.001 8.82937C32.001 8.51793 31.9949 8.20649 31.9826 7.9012C33.3816 6.89107 34.5963 5.63096 35.5529 4.19465Z" fill="#625A5A"/>
</svg>
