<svg width="36" height="31" viewBox="0 0 36 31" fill="none" xmlns="http://www.w3.org/2000/svg">
<path d="M35.5961 7.72307C35.4442 11.08 33.0681 15.6688 28.4842 21.4916C23.7402 27.5803 19.7205 30.6226 16.4354 30.6226C14.4041 30.6226 12.6825 28.7716 11.277 25.0575C10.3351 21.6499 9.39947 18.2423 8.4597 14.8448C7.41323 11.1287 6.29289 9.27162 5.09458 9.27162C4.83399 9.27162 3.92499 9.81352 2.35734 10.8993L0.71582 8.80686C2.43531 7.31513 4.13018 5.81732 5.80248 4.32357C8.09241 2.36301 9.81395 1.33403 10.963 1.22646C13.6715 0.96668 15.3418 2.79937 15.9717 6.71844C16.6427 10.9501 17.1146 13.5804 17.3752 14.6114C18.159 18.1185 19.0167 19.8679 19.9565 19.8679C20.6849 19.8679 21.7806 18.7354 23.2416 16.4684C24.7025 14.1974 25.4802 12.4722 25.5869 11.2829C25.7962 9.32236 25.0144 8.34818 23.2416 8.34818C22.4065 8.34818 21.5447 8.52272 20.6603 8.88804C22.3839 3.36967 25.6669 0.686601 30.5176 0.842877C34.1105 0.942325 35.8074 3.23978 35.5961 7.72307Z" fill="#625A5A"/>
</svg>
