<svg width="36" height="25" viewBox="0 0 36 25" fill="none" xmlns="http://www.w3.org/2000/svg">
<path fill-rule="evenodd" clip-rule="evenodd" d="M33.9379 2.47108C34.9838 3.51132 35.3251 5.87354 35.3251 5.87354C35.3251 5.87354 35.6741 8.64821 35.6741 11.4218V14.0229C35.6741 16.7976 35.3251 19.5712 35.3251 19.5712C35.3251 19.5712 34.9838 21.9334 33.9379 22.9737C32.7422 24.2043 31.4164 24.3314 30.667 24.4033C30.5846 24.4112 30.5091 24.4184 30.4416 24.4264C25.5581 24.7735 18.2252 24.7842 18.2252 24.7842C18.2252 24.7842 9.15182 24.7028 6.36 24.4392C6.22773 24.4149 6.06738 24.3961 5.8858 24.3747C5.00146 24.2705 3.61345 24.1069 2.51144 22.9737C1.4656 21.9334 1.12534 19.5712 1.12534 19.5712C1.12534 19.5712 0.776367 16.7976 0.776367 14.0229V11.4218C0.776367 8.64821 1.12534 5.87354 1.12534 5.87354C1.12534 5.87354 1.4656 3.51132 2.51144 2.47108C3.7098 1.23878 5.03688 1.11301 5.78634 1.04198C5.8676 1.03428 5.94207 1.02722 6.00884 1.01947C10.8923 0.672363 18.2176 0.672363 18.2176 0.672363H18.2329C18.2329 0.672363 25.5581 0.672363 30.4416 1.01947C30.5084 1.02723 30.5829 1.0343 30.6642 1.04201C31.4131 1.11305 32.7407 1.23898 33.9379 2.47108ZM14.621 7.54346L14.6221 17.1758L24.0499 12.3762L14.621 7.54346Z" fill="#625A5A"/>
</svg>
