<?xml version="1.0" standalone="no"?>
<!DOCTYPE svg PUBLIC "-//W3C//DTD SVG 20010904//EN"
 "http://www.w3.org/TR/2001/REC-SVG-20010904/DTD/svg10.dtd">
<svg version="1.0" xmlns="http://www.w3.org/2000/svg"
 width="700.000000pt" height="700.000000pt" viewBox="0 0 700.000000 700.000000"
 preserveAspectRatio="xMidYMid meet">
<metadata>
Created by potrace 1.14, written by Peter Selinger 2001-2017
</metadata>
<g transform="translate(0.000000,700.000000) scale(0.100000,-0.100000)"
fill="#000000" stroke="none">
<path d="M2994 6898 c1 -7 5 -19 9 -25 5 -7 4 -13 -2 -13 -5 0 -11 5 -13 12
-2 6 -12 12 -21 14 -9 1 -14 -2 -11 -8 4 -5 -4 -8 -17 -6 -16 2 -23 -2 -21
-10 1 -8 -2 -11 -8 -7 -6 3 -8 10 -6 14 3 4 -1 8 -9 8 -8 0 -12 -4 -10 -7 3
-4 -6 -7 -20 -7 -14 0 -23 2 -21 6 6 10 -43 6 -51 -4 -5 -4 -2 -5 5 -1 6 4 12
2 12 -4 0 -6 5 -8 12 -4 6 4 8 3 5 -3 -4 -6 -19 -8 -33 -5 -21 4 -25 2 -19 -9
7 -12 6 -11 -9 0 -14 12 -19 12 -26 2 -6 -11 -9 -11 -14 0 -5 11 -7 11 -12 1
-3 -6 -10 -10 -15 -6 -5 3 -9 0 -9 -5 0 -6 -4 -11 -10 -11 -5 0 -7 8 -4 18 5
15 4 15 -8 2 -7 -9 -23 -15 -36 -14 -15 1 -21 -3 -18 -11 4 -10 -2 -11 -25 -5
-20 6 -27 5 -23 -2 4 -7 -1 -8 -16 -3 -19 6 -22 4 -16 -11 6 -18 5 -18 -9 0
-13 17 -15 17 -15 4 0 -9 -5 -20 -11 -24 -8 -4 -9 1 -5 17 7 24 7 24 -8 -1
-10 -16 -16 -19 -16 -10 -1 12 -3 12 -14 -2 -10 -14 -15 -15 -26 -5 -10 10
-12 8 -6 -7 6 -17 5 -17 -11 -5 -15 12 -16 12 -11 -3 5 -13 1 -15 -22 -11 -25
3 -28 1 -25 -16 3 -15 0 -18 -13 -14 -10 4 -12 8 -4 11 7 2 9 8 6 13 -3 6 -11
6 -20 -2 -7 -6 -20 -9 -29 -5 -8 3 -14 0 -12 -6 1 -7 -4 -12 -11 -13 -7 0 -17
-7 -22 -15 -6 -9 -10 -10 -10 -3 0 15 -41 8 -52 -9 -4 -7 -8 -9 -8 -4 0 5 -6
3 -14 -3 -11 -9 -15 -9 -19 1 -4 11 -6 10 -6 0 -1 -7 -6 -10 -13 -6 -6 4 -8 3
-4 -4 3 -6 15 -9 26 -7 11 2 20 0 20 -5 0 -5 -10 -9 -22 -8 -40 2 -49 -2 -42
-14 4 -7 -3 -4 -16 7 -13 11 -21 15 -17 9 3 -6 0 -20 -9 -30 -14 -18 -15 -18
-8 6 6 24 5 24 -9 5 -8 -10 -12 -26 -9 -35 5 -12 2 -11 -12 3 -22 22 -26 22
-21 -3 5 -25 -12 -27 -18 -2 -3 11 -5 9 -6 -8 -1 -18 -4 -21 -10 -11 -7 11
-10 9 -16 -8 -6 -21 -8 -21 -19 -5 -10 13 -15 14 -21 4 -6 -9 -4 -11 5 -5 9 5
11 4 6 -3 -4 -7 -18 -12 -32 -12 -13 0 -24 -5 -24 -11 0 -5 5 -7 12 -3 7 4 8
3 4 -5 -6 -9 -11 -9 -24 1 -12 10 -14 10 -8 1 4 -8 1 -13 -8 -13 -9 0 -16 -4
-16 -10 0 -5 -7 -10 -15 -10 -8 0 -23 -9 -32 -20 -10 -11 -23 -20 -31 -20 -7
0 -11 -4 -8 -8 3 -5 -1 -9 -8 -9 -8 0 -12 7 -9 16 3 11 1 10 -7 -2 -10 -15 -9
-21 5 -31 15 -11 14 -12 -12 -12 -18 1 -27 -4 -25 -12 1 -8 -2 -11 -8 -7 -8 5
-8 11 1 21 6 7 16 11 22 7 6 -4 7 -1 3 6 -6 9 -12 8 -26 -4 -10 -9 -23 -14
-28 -11 -5 3 -9 -1 -9 -9 0 -8 4 -12 9 -9 4 3 5 -2 2 -11 -6 -14 -8 -14 -20 2
-12 17 -13 16 -9 -4 2 -15 0 -20 -10 -17 -7 3 -16 -3 -19 -13 -3 -10 -16 -19
-28 -20 -22 -2 -38 -19 -34 -37 2 -6 1 -8 -1 -3 -3 4 -10 4 -16 1 -8 -5 -8 -2
1 7 6 7 12 18 12 23 0 6 -5 4 -10 -4 -5 -8 -15 -15 -22 -15 -7 0 -17 -10 -24
-22 -6 -13 -14 -20 -17 -16 -6 6 -11 -11 -8 -29 0 -4 -7 -4 -16 -1 -11 4 -14
3 -9 -5 10 -16 -6 -15 -24 1 -8 6 -6 2 3 -10 14 -16 15 -23 6 -29 -7 -4 -10
-3 -6 3 4 6 1 13 -7 16 -9 4 -12 0 -9 -13 3 -10 -4 -23 -16 -32 -12 -8 -18
-17 -15 -20 3 -3 -3 -5 -13 -4 -10 0 -17 -4 -16 -10 1 -6 -5 -11 -13 -11 -11
0 -11 4 3 19 9 10 13 21 10 25 -4 3 -7 1 -7 -6 0 -7 -5 -9 -12 -5 -6 4 -8 3
-5 -3 8 -13 -31 -55 -44 -48 -5 4 -5 -4 1 -19 6 -17 6 -27 -2 -32 -7 -4 -8 -3
-4 4 10 16 -30 10 -47 -7 -9 -10 -8 -11 5 -6 11 4 18 2 18 -5 0 -6 -3 -9 -7
-7 -14 8 -48 -10 -48 -24 -1 -8 -7 -13 -14 -11 -8 2 -11 -3 -8 -12 4 -9 1 -15
-5 -13 -7 1 -12 -5 -13 -13 0 -8 -8 -14 -17 -12 -9 1 -20 -3 -24 -9 -4 -7 -3
-9 4 -5 12 7 10 -20 -3 -31 -4 -4 -5 -2 -1 5 4 6 3 12 -2 12 -16 0 -22 -13
-11 -26 7 -8 6 -14 -2 -20 -7 -4 -9 -3 -6 3 4 6 -2 13 -13 16 -16 4 -18 2 -10
-13 7 -13 7 -21 0 -25 -6 -4 -8 -11 -4 -16 3 -5 0 -8 -8 -7 -7 2 -12 -3 -10
-10 1 -8 -2 -11 -7 -7 -6 3 -17 -7 -25 -22 -8 -15 -15 -23 -16 -17 0 6 9 22
19 36 14 18 17 28 9 39 -8 11 -9 11 -4 -3 3 -10 1 -18 -4 -18 -5 0 -12 -9 -15
-20 -4 -11 -11 -18 -16 -15 -5 3 -6 -1 -3 -9 4 -10 1 -16 -7 -16 -11 0 -11 -3
1 -11 12 -9 10 -10 -8 -6 -20 5 -22 3 -10 -11 10 -12 10 -14 1 -8 -8 4 -13 2
-13 -4 0 -6 -5 -8 -12 -4 -8 5 -7 0 2 -11 14 -17 14 -18 -10 -5 l-25 13 20
-23 c11 -13 14 -20 8 -16 -13 7 -17 -4 -14 -34 2 -13 0 -13 -8 -1 -5 8 -8 19
-7 25 2 6 1 8 -1 3 -3 -4 -8 -5 -12 -2 -5 2 -6 -7 -3 -22 4 -20 2 -24 -8 -18
-10 6 -12 3 -8 -13 5 -18 3 -20 -12 -12 -15 8 -17 6 -12 -12 4 -16 2 -19 -8
-13 -9 5 -11 4 -6 -3 4 -7 2 -12 -4 -12 -6 0 -8 -5 -4 -12 5 -8 1 -9 -12 -5
-18 7 -18 7 0 -8 18 -13 18 -15 3 -15 -10 0 -20 -7 -23 -15 -4 -8 -11 -12 -18
-8 -8 4 -8 3 0 -7 9 -9 8 -19 -5 -41 -9 -16 -20 -29 -25 -29 -5 0 -2 8 5 18
13 15 12 16 -4 3 -14 -11 -15 -16 -5 -29 11 -13 11 -14 -1 -7 -11 6 -13 3 -9
-13 4 -12 2 -20 -3 -16 -5 3 -9 1 -9 -4 0 -5 -10 -12 -22 -15 -18 -5 -19 -8
-8 -21 10 -13 10 -16 -5 -16 -13 0 -16 -6 -12 -25 3 -19 -1 -28 -17 -36 -20
-10 -20 -10 -2 5 11 9 15 16 9 16 -17 0 -36 -27 -23 -35 5 -3 10 -12 10 -18 0
-7 -4 -6 -10 3 -13 21 -24 5 -11 -17 8 -15 7 -20 -4 -20 -8 0 -12 4 -9 9 3 4
-2 5 -10 2 -14 -5 -13 -8 2 -23 10 -9 12 -12 6 -8 -14 9 -29 -26 -18 -44 4 -7
-1 -7 -16 1 -16 9 -20 9 -15 1 4 -7 2 -18 -5 -26 -8 -9 -8 -15 0 -20 6 -4 9
-3 8 2 -2 4 0 9 5 11 16 5 19 1 7 -13 -7 -8 -16 -13 -20 -10 -4 3 -13 -2 -19
-9 -9 -11 -9 -16 0 -22 7 -4 9 -3 6 3 -3 5 0 10 8 10 18 0 -13 -45 -35 -49 -8
-2 -14 -15 -15 -33 0 -19 -5 -29 -12 -27 -18 3 -16 -3 5 -24 16 -17 16 -17 -5
-12 -13 3 -23 2 -23 -3 0 -5 4 -9 9 -9 6 0 9 -9 8 -19 0 -11 -5 -17 -9 -15 -5
3 -5 11 -1 17 4 7 0 6 -10 -2 -18 -15 -23 -26 -7 -16 16 10 12 -4 -10 -35 -11
-15 -17 -30 -14 -32 3 -3 7 -18 10 -34 3 -20 1 -24 -5 -15 -7 10 -13 11 -27 1
-16 -10 -16 -11 -1 -6 9 3 17 1 17 -4 0 -6 -5 -10 -11 -10 -5 0 -7 -4 -4 -10
3 -5 0 -10 -7 -11 -7 0 -4 -4 7 -9 16 -7 17 -9 3 -9 -9 -1 -20 -6 -24 -13 -4
-7 -3 -8 4 -4 7 4 12 3 12 -2 0 -17 -13 -22 -29 -9 -14 10 -14 10 -4 -4 7 -9
10 -19 6 -23 -4 -4 -1 -5 7 -3 8 2 12 2 7 0 -4 -3 -5 -9 -2 -14 4 -5 -1 -6 -9
-3 -9 3 -16 1 -16 -5 0 -6 5 -11 11 -11 8 0 9 -4 0 -13 -6 -8 -8 -17 -4 -20 3
-4 -1 -7 -10 -7 -9 0 -19 -4 -22 -10 -3 -5 0 -7 8 -4 8 3 18 0 23 -7 4 -7 3
-10 -4 -5 -6 3 -13 2 -17 -4 -3 -5 -1 -10 4 -10 6 0 11 -4 11 -9 0 -5 -10 -7
-23 -5 -12 2 -16 2 -9 -2 15 -7 16 -34 1 -34 -5 0 -7 -5 -4 -10 4 -6 12 -8 18
-4 7 3 5 0 -4 -8 -9 -7 -15 -25 -15 -41 1 -18 -3 -26 -10 -23 -13 5 -11 -23 2
-47 6 -8 3 -8 -9 1 -15 12 -15 11 -7 -20 12 -40 12 -41 1 -34 -5 4 -7 -4 -3
-16 3 -14 2 -19 -6 -14 -7 4 -12 2 -12 -3 0 -6 4 -11 8 -11 11 0 9 -31 -2 -49
-5 -8 -3 -17 5 -22 10 -6 11 -9 2 -9 -7 0 -13 -7 -13 -15 0 -8 -6 -15 -12 -15
-9 0 -9 -3 1 -9 9 -6 11 -15 6 -27 -5 -11 -9 -44 -10 -76 0 -32 -7 -64 -16
-74 -12 -16 -12 -17 4 -11 9 3 17 2 17 -3 0 -6 -6 -10 -14 -10 -8 0 -18 -5
-22 -12 -4 -6 -3 -8 3 -5 6 4 14 0 17 -9 8 -21 8 -24 -5 -24 -5 0 -7 5 -3 12
5 7 3 8 -6 3 -10 -6 -7 -12 11 -27 15 -11 18 -16 7 -12 -11 4 -18 1 -18 -6 0
-6 -6 -8 -12 -4 -7 4 -3 -4 10 -18 19 -21 21 -28 10 -39 -18 -20 -17 -97 2
-109 13 -9 13 -10 0 -10 -19 0 -22 -71 -3 -83 10 -6 10 -12 1 -27 -9 -14 -9
-22 3 -36 8 -10 9 -15 3 -11 -15 9 -25 -15 -14 -33 4 -7 14 -9 21 -6 8 4 5 0
-5 -8 -11 -9 -14 -16 -8 -16 7 0 12 -4 12 -10 0 -5 -6 -8 -12 -6 -7 1 -10 1
-5 -1 4 -3 4 -9 1 -15 -4 -6 2 -8 17 -3 17 4 20 3 10 -3 -8 -6 -10 -15 -5 -23
6 -11 5 -12 -7 -2 -13 10 -16 10 -16 -2 0 -8 5 -15 11 -15 6 0 11 -11 11 -25
0 -14 -4 -25 -10 -25 -5 0 -4 -4 3 -9 8 -4 14 -12 15 -17 1 -5 5 -8 9 -7 9 3
4 -25 -7 -34 -4 -4 -5 -2 -1 5 4 6 2 12 -3 12 -14 0 -14 -17 -1 -25 6 -4 7
-12 3 -18 -11 -18 -12 -38 -2 -31 5 3 6 10 3 16 -4 7 -2 8 5 4 6 -4 9 -11 7
-15 -11 -17 -16 -71 -7 -71 6 0 8 9 6 20 -2 11 0 22 4 24 9 6 8 -50 -1 -60 -4
-4 -3 -13 3 -21 9 -9 8 -17 0 -27 -9 -10 -9 -16 -1 -21 6 -4 14 -4 17 -1 4 3
1 6 -6 6 -7 0 -9 5 -6 10 11 18 21 11 21 -14 0 -14 -3 -23 -7 -20 -10 6 -4
-44 6 -54 4 -4 6 -2 2 3 -3 6 -1 17 5 25 8 13 9 12 5 -1 -3 -9 -1 -21 5 -27 6
-6 6 -12 -3 -17 -8 -6 -10 -4 -4 5 6 9 4 11 -5 5 -10 -6 -9 -11 5 -21 23 -17
26 -62 6 -82 -13 -13 -12 -14 8 -7 20 6 22 5 12 -13 -15 -29 -14 -37 4 -22 9
7 18 10 22 6 3 -3 2 -6 -3 -6 -5 0 -10 -16 -11 -36 0 -24 2 -32 8 -23 7 11 9
11 9 -3 0 -9 -6 -19 -12 -21 -7 -3 -3 -6 10 -6 12 -1 22 -6 22 -12 0 -5 -4 -7
-10 -4 -5 3 -10 1 -10 -4 0 -10 14 -15 33 -12 5 1 6 -3 2 -9 -3 -6 -11 -8 -16
-5 -5 4 -9 -1 -9 -10 0 -8 7 -18 15 -21 8 -4 15 -17 15 -30 0 -18 4 -22 17
-18 16 5 16 4 2 -5 -9 -6 -15 -20 -13 -33 1 -13 3 -26 3 -30 1 -5 8 -8 16 -8
8 0 15 -5 15 -11 0 -5 5 -7 12 -3 7 4 8 3 4 -5 -5 -7 -13 -9 -20 -4 -7 4 -3 0
7 -9 12 -12 15 -18 6 -18 -8 0 -5 -6 7 -15 19 -15 19 -15 -1 -8 -17 6 -18 5
-5 -9 8 -9 18 -14 21 -12 4 2 10 -3 13 -12 5 -12 2 -15 -10 -10 -13 5 -14 4
-6 -7 9 -10 8 -17 -1 -27 -6 -8 -1 -6 12 5 14 11 21 15 18 8 -4 -6 -3 -14 2
-18 6 -3 7 -13 4 -22 -5 -13 -2 -15 13 -10 17 6 17 6 3 -6 -19 -14 -10 -34 26
-56 13 -8 14 -11 3 -7 -11 3 -15 -1 -13 -12 1 -9 9 -16 18 -16 10 1 13 -4 10
-13 -5 -12 -1 -14 18 -8 13 3 19 3 13 -2 -14 -10 -15 -44 -1 -60 6 -9 5 -13
-3 -13 -8 0 -10 -3 -7 -6 4 -4 12 -2 19 4 10 8 13 4 15 -15 1 -20 -1 -23 -9
-12 -8 12 -9 12 -5 -1 2 -8 14 -14 25 -14 12 1 22 -3 22 -7 0 -9 -16 -13 -34
-10 -5 1 -4 -5 4 -14 10 -12 15 -13 28 -3 13 12 14 10 3 -11 -8 -15 -9 -21 -2
-17 6 4 11 0 11 -9 0 -9 5 -13 10 -10 6 3 10 1 10 -5 0 -6 3 -9 8 -7 4 3 8 -9
9 -26 4 -55 5 -58 18 -47 9 8 14 6 19 -5 3 -9 2 -13 -4 -10 -6 3 -10 1 -10 -4
0 -6 9 -11 19 -11 24 0 36 -16 20 -26 -8 -4 -9 -3 -5 4 4 7 2 12 -3 12 -19 0
-12 -22 9 -27 11 -3 20 -10 20 -15 0 -5 -6 -6 -12 -2 -9 6 -9 3 0 -9 8 -9 11
-20 9 -24 -5 -8 6 -11 49 -15 6 -1 11 -7 11 -15 0 -9 -4 -10 -13 -2 -9 7 -14
6 -20 -3 -4 -7 -4 -10 0 -6 5 4 20 -5 34 -19 19 -19 22 -27 12 -33 -9 -6 -7
-10 9 -15 19 -6 25 -17 22 -37 0 -5 2 -7 7 -7 4 1 14 1 22 0 13 -1 13 -2 0
-12 -12 -9 -10 -10 8 -6 19 5 21 3 11 -9 -9 -11 -9 -14 0 -14 7 0 9 -5 5 -12
-6 -10 -4 -10 8 0 14 11 20 7 44 -26 17 -23 35 -37 44 -35 12 4 12 3 1 -5 -11
-8 -10 -14 3 -34 9 -14 13 -28 9 -32 -4 -4 1 -4 12 0 14 6 17 4 12 -9 -4 -10
-2 -14 7 -11 7 3 21 -6 32 -18 l19 -23 -22 18 c-16 14 -23 15 -29 6 -4 -7 -3
-10 3 -6 6 4 16 0 23 -9 7 -8 18 -13 25 -10 6 2 12 -2 12 -10 0 -7 -5 -11 -11
-8 -6 3 0 -4 14 -15 14 -11 29 -21 33 -21 5 0 6 -4 2 -9 -3 -5 0 -13 6 -17 8
-4 9 -3 5 4 -4 7 -2 12 3 12 10 0 15 -14 12 -33 -1 -5 3 -6 8 -3 5 3 12 -1 15
-10 4 -9 13 -14 21 -10 8 3 15 1 15 -4 0 -6 -5 -10 -11 -10 -5 0 -7 -4 -4 -10
4 -6 16 -4 33 6 25 15 25 15 8 0 -19 -15 -19 -16 -2 -16 14 0 17 -5 13 -21 -4
-16 -3 -18 9 -8 15 12 19 0 7 -17 -5 -5 0 0 10 11 14 14 18 15 17 5 -4 -29 0
-50 11 -50 5 0 8 4 4 9 -3 5 -1 12 4 16 6 3 8 -4 6 -16 -3 -15 0 -19 11 -15
12 5 14 1 10 -17 -3 -12 -3 -17 0 -10 4 10 8 10 19 0 7 -7 10 -16 7 -22 -3 -5
3 -3 13 5 11 9 16 10 11 3 -4 -8 -2 -13 4 -13 6 0 8 -5 4 -12 -6 -10 -5 -10 8
-1 18 15 32 5 18 -13 -8 -9 -5 -12 12 -13 56 -1 56 0 60 -51 1 -11 6 -20 11
-20 5 0 7 9 4 20 -7 29 2 25 13 -6 8 -20 13 -24 24 -15 10 8 18 6 32 -11 10
-12 14 -18 7 -15 -6 4 -14 3 -17 -2 -4 -5 1 -8 10 -7 8 1 20 9 25 17 12 19 12
3 0 -20 -7 -12 -6 -18 2 -18 7 0 21 -4 32 -8 l20 -8 -20 17 c-20 17 -20 17 2
6 12 -5 25 -15 29 -22 4 -6 3 -8 -2 -5 -6 3 -16 2 -23 -2 -9 -6 -3 -9 15 -9
16 0 32 5 37 12 4 6 5 -1 3 -15 -3 -20 0 -26 12 -25 10 0 20 6 24 11 5 6 8 6
8 -2 0 -7 -7 -16 -16 -21 -15 -8 -15 -10 0 -15 10 -4 15 -3 11 3 -3 6 1 10 10
10 11 0 15 -5 11 -16 -3 -8 -2 -12 3 -9 5 3 12 1 16 -4 3 -6 12 -8 20 -4 9 3
15 -1 15 -11 0 -16 6 -18 48 -19 18 0 21 -4 17 -21 -5 -18 -5 -19 5 -4 12 20
44 13 36 -8 -3 -9 0 -11 11 -7 11 4 14 2 9 -5 -5 -8 0 -12 13 -12 10 0 21 -3
24 -7 2 -5 2 -2 1 5 -2 6 1 12 6 12 6 0 10 -7 10 -15 0 -8 5 -15 11 -15 5 0 7
5 3 12 -4 7 -3 8 4 4 6 -4 8 -14 5 -23 -4 -10 -2 -14 4 -10 6 4 13 4 16 0 2
-5 2 -3 1 4 -2 7 1 15 7 18 5 4 8 3 7 -2 -2 -4 -1 -8 2 -9 3 -1 24 -11 47 -22
23 -12 50 -19 60 -16 10 3 7 -1 -6 -9 -14 -8 -19 -17 -13 -21 6 -3 13 0 15 6
4 10 8 10 15 -1 8 -11 10 -11 15 0 4 10 6 10 6 2 1 -7 6 -13 12 -13 5 0 7 5 3
12 -4 7 -3 8 5 4 6 -4 8 -12 5 -18 -4 -6 1 -8 14 -4 11 4 23 2 27 -4 4 -6 14
-9 22 -6 8 3 11 2 8 -3 -3 -5 -1 -12 5 -16 5 -3 10 -1 10 5 0 7 7 5 16 -4 8
-9 20 -14 25 -11 5 4 9 1 9 -6 0 -7 3 -9 7 -6 3 4 13 1 21 -6 13 -9 14 -9 8 0
-5 10 -1 11 17 4 14 -6 28 -7 33 -3 4 4 4 2 1 -4 -4 -7 0 -15 9 -18 23 -9 24
-8 18 11 -5 15 -4 16 5 3 6 -8 16 -15 23 -15 7 0 12 -9 10 -20 -2 -16 -1 -17
7 -5 5 8 7 18 5 22 -3 4 0 8 5 8 6 0 11 -7 11 -15 0 -8 5 -15 11 -15 5 0 7 4
4 10 -3 6 1 7 9 4 9 -3 16 -11 16 -17 0 -5 10 -2 22 9 15 13 18 14 10 3 -10
-14 -10 -18 4 -23 10 -4 21 -2 24 4 5 8 9 6 13 -4 4 -9 12 -16 19 -16 9 0 9 3
-2 10 -8 5 -12 12 -8 15 3 3 12 0 19 -8 8 -7 20 -12 28 -9 9 3 11 0 6 -8 -5
-8 -4 -11 3 -6 5 3 13 0 16 -6 3 -7 4 -4 3 6 -1 10 5 21 13 23 13 4 13 3 0 -6
-11 -8 -12 -11 -2 -11 7 0 11 -4 8 -9 -10 -15 25 -6 36 10 7 11 9 8 5 -9 -5
-19 -3 -21 9 -11 8 6 14 8 14 3 0 -5 5 -2 10 6 8 12 10 12 10 1 0 -8 7 -11 20
-8 11 3 20 1 20 -3 0 -5 13 -5 29 0 25 7 29 6 24 -8 -5 -11 -3 -13 8 -7 17 11
119 14 119 4 0 -4 -8 -6 -18 -4 -11 2 -19 -3 -19 -10 0 -16 19 -14 41 4 15 12
20 8 17 -12 -1 -5 3 -5 9 -2 6 4 9 14 6 24 -5 12 -2 11 9 -3 10 -13 15 -15 15
-6 0 9 5 7 15 -6 13 -16 14 -16 9 -1 -5 13 -2 16 10 11 9 -3 16 -11 17 -18 0
-6 4 -2 9 9 5 12 9 14 9 6 1 -11 5 -10 17 5 15 19 15 18 9 -3 -4 -15 -2 -21 9
-19 9 1 19 6 23 11 4 4 2 5 -6 0 -10 -5 -12 -4 -7 4 4 6 11 9 16 6 4 -3 10 -2
13 2 2 5 2 3 1 -4 -2 -7 1 -15 6 -18 6 -4 10 1 10 9 0 8 5 18 12 22 8 5 9 2 5
-10 -5 -12 -3 -16 5 -13 7 2 12 10 10 16 -1 7 2 10 7 6 6 -3 9 -11 7 -18 -1
-7 -1 -9 1 -4 3 4 10 4 16 0 7 -4 8 0 3 13 -6 15 -2 14 20 -6 15 -14 24 -19
20 -12 -5 8 1 12 18 12 14 0 26 6 26 13 0 8 3 7 9 -3 6 -8 7 -19 4 -25 -4 -5
-2 -6 3 -2 5 5 9 14 9 20 0 5 6 12 14 15 9 3 11 0 5 -9 -6 -11 -3 -10 11 1 10
8 16 10 12 3 -4 -6 -2 -15 4 -19 7 -4 9 -3 6 3 -4 6 1 17 10 24 9 8 14 9 10 3
-4 -7 0 -15 9 -18 8 -3 13 -2 10 3 -3 5 3 11 14 14 13 3 18 1 13 -6 -4 -7 0
-8 11 -4 10 4 20 7 22 7 3 0 2 6 -2 13 -6 9 -4 9 7 1 23 -18 51 -26 43 -12 -5
8 -2 9 10 5 10 -4 15 -3 11 3 -9 14 8 12 24 -3 11 -9 13 -9 7 1 -4 6 -3 12 3
12 5 0 12 -6 14 -12 3 -8 6 -5 6 6 1 16 3 17 18 5 10 -8 14 -9 10 -2 -12 19
11 25 23 6 10 -16 11 -16 6 -1 -6 20 10 34 17 16 3 -8 6 -5 6 5 1 17 3 17 16
3 11 -11 22 -13 38 -7 12 5 25 8 29 7 3 0 10 2 14 6 3 4 -3 5 -15 3 -13 -2
-19 0 -15 6 3 6 8 8 11 5 3 -3 14 -1 24 5 15 7 21 6 25 -6 3 -8 10 -12 16 -9
5 3 4 12 -4 22 -11 13 -11 14 0 8 7 -4 21 -2 30 5 14 11 15 11 5 -1 -18 -20
-16 -35 2 -20 8 7 22 10 30 6 12 -4 13 -2 5 13 -7 15 -6 19 5 17 8 -1 18 -6
22 -11 4 -4 2 -5 -6 0 -10 6 -12 4 -6 -4 5 -9 14 -6 33 11 22 20 24 20 18 4
-5 -16 -4 -17 9 -6 8 7 12 17 8 23 -4 6 0 8 10 4 22 -9 44 -15 35 -10 -5 3 -8
10 -8 16 0 5 3 7 7 4 3 -4 12 1 20 11 14 16 14 16 9 0 -7 -24 10 -23 31 1 9
11 23 17 31 13 12 -4 14 -1 9 14 -7 18 -7 18 8 0 13 -17 17 -18 28 -6 9 10 9
11 0 6 -9 -5 -11 -2 -6 10 4 12 8 14 11 6 3 -10 7 -10 18 -1 8 6 11 16 7 22
-3 6 -1 7 6 3 6 -4 9 -10 7 -14 -2 -4 10 -7 27 -8 18 -1 26 1 20 3 -22 8 -14
21 10 16 20 -5 21 -4 4 8 -16 13 -15 14 8 15 16 1 23 -2 19 -10 -3 -6 0 -4 8
5 7 9 18 14 24 12 16 -5 46 26 38 39 -4 7 -2 8 5 4 6 -4 8 -13 4 -19 -5 -8 -2
-8 9 0 8 7 19 9 24 5 4 -4 2 2 -6 13 -8 11 -10 17 -5 12 4 -4 17 0 27 10 10 9
18 13 18 8 0 -4 8 -1 18 6 15 13 16 12 3 -3 -7 -10 -17 -15 -22 -12 -5 3 -6
-2 -3 -10 5 -12 12 -9 34 15 20 22 29 27 33 17 4 -10 6 -10 6 1 1 8 8 23 18
33 14 16 18 16 33 3 14 -13 16 -12 17 6 1 11 -3 17 -9 13 -6 -4 -6 2 1 15 13
24 23 28 15 6 -4 -10 0 -15 11 -15 9 0 13 4 10 10 -4 6 1 7 11 3 13 -5 15 -3
9 8 -8 12 -6 12 8 0 15 -12 17 -12 12 1 -4 10 1 14 17 14 17 -1 22 4 20 17 -2
10 3 17 13 17 10 0 13 -5 9 -12 -4 -7 -3 -8 5 -4 6 4 9 10 7 14 -2 4 3 16 11
27 12 16 14 16 10 3 -3 -10 -1 -20 5 -24 7 -5 8 -2 3 6 -6 10 -4 12 9 7 10 -4
15 -3 11 3 -7 11 29 32 40 22 5 -4 6 -2 2 3 -8 15 17 44 41 48 27 4 63 37 55
50 -3 6 -1 7 5 3 7 -4 12 -2 12 3 0 6 7 11 16 11 12 0 14 3 6 13 -8 10 -6 13
9 14 11 1 17 -2 14 -8 -4 -5 -1 -9 4 -9 6 0 11 4 11 10 0 5 10 14 21 21 17 9
20 8 14 -2 -6 -9 -3 -10 10 -5 16 6 16 4 4 -11 -9 -11 -10 -14 -2 -9 7 4 22 9
34 11 17 3 19 1 9 -10 -8 -10 -8 -15 1 -21 7 -4 9 -3 6 3 -4 6 0 13 8 17 8 3
15 0 15 -6 0 -7 5 -6 15 2 12 10 14 8 10 -12 -4 -21 -3 -21 9 -5 14 17 32 24
21 8 -3 -5 0 -13 6 -17 8 -4 9 -3 5 4 -4 7 -3 12 3 12 5 0 12 -6 14 -12 4 -9
6 -9 6 1 1 11 5 10 16 -5 13 -16 16 -17 25 -4 8 13 10 12 10 -4 0 -15 3 -16
14 -7 11 9 16 9 22 0 5 -8 3 -9 -6 -4 -9 5 -11 4 -6 -4 4 -6 12 -8 18 -5 6 4
15 0 20 -7 8 -11 9 -10 4 3 -8 27 9 30 30 5 19 -21 19 -21 -1 -7 -20 15 -20
14 -1 -8 20 -23 32 -30 21 -12 -3 5 3 10 14 10 10 0 22 6 25 12 3 7 3 2 -1
-12 -5 -22 -4 -23 11 -11 13 11 16 11 16 0 0 -11 2 -11 10 1 6 10 10 11 10 3
0 -7 7 -13 16 -13 11 0 14 -6 10 -17 -5 -15 -4 -15 9 1 9 12 15 15 15 7 0 -8
6 -11 15 -7 8 3 15 1 15 -4 0 -6 5 -10 11 -10 5 0 7 4 4 10 -3 6 1 7 9 4 9 -3
14 -9 11 -14 -2 -4 7 -6 20 -4 16 1 25 -3 25 -12 0 -8 5 -14 11 -14 5 0 7 4 4
10 -3 5 -2 10 4 10 5 0 11 -6 14 -12 3 -10 7 -10 18 -1 11 9 19 8 33 -3 16
-11 21 -11 28 -1 5 8 8 7 8 -5 0 -10 -5 -18 -12 -18 -6 0 -9 -3 -6 -6 4 -3 19
3 35 13 26 16 27 16 14 0 -8 -10 -11 -20 -7 -24 3 -3 6 -1 6 6 0 8 8 11 20 8
10 -3 21 0 24 7 2 6 5 0 5 -14 1 -17 4 -21 9 -12 7 10 15 10 36 2 34 -13 39
-13 30 1 -10 16 29 -6 46 -26 10 -12 16 -13 26 -4 11 9 14 8 14 -4 0 -10 6
-13 20 -10 17 4 18 8 9 22 -6 9 0 4 14 -11 25 -27 44 -38 32 -19 -3 5 0 13 6
17 8 4 9 3 5 -4 -4 -7 -1 -12 8 -12 9 0 15 -5 13 -12 -3 -15 23 -18 42 -4 11
8 13 8 8 0 -4 -7 2 -14 14 -17 17 -5 18 -3 7 10 -12 15 -11 15 10 4 12 -7 20
-15 18 -19 -3 -5 5 -9 17 -9 12 -1 25 3 29 10 6 9 8 8 8 -3 0 -8 9 -21 21 -28
12 -8 19 -10 16 -5 -3 5 -2 15 4 23 6 11 9 12 9 2 0 -7 4 -11 9 -7 5 3 13 0
17 -6 4 -8 3 -9 -4 -5 -7 4 -12 2 -12 -3 0 -14 13 -14 28 1 9 9 12 9 13 -2 1
-8 1 -19 0 -23 -1 -5 3 -6 9 -2 6 3 8 11 5 16 -4 5 -2 9 4 9 5 0 11 -4 13 -9
2 -4 14 -12 27 -16 16 -5 21 -4 17 4 -5 7 -1 9 8 5 9 -3 16 -10 16 -15 0 -5 5
-9 11 -9 5 0 7 6 3 13 -6 8 -3 8 9 -1 9 -8 22 -10 29 -6 10 6 11 5 1 -7 -11
-13 -9 -15 10 -14 12 1 28 -3 36 -9 11 -8 13 -8 8 0 -4 7 4 11 22 10 16 -1 27
-4 25 -8 -4 -7 50 -29 81 -33 11 -1 26 3 34 9 11 8 13 8 8 0 -4 -7 0 -15 9
-18 11 -4 18 1 21 14 3 11 10 17 17 13 6 -3 7 -2 3 3 -5 5 -13 9 -18 9 -5 0
-8 3 -6 6 1 4 -6 16 -16 26 -9 11 -14 23 -10 27 4 4 0 4 -9 1 -11 -5 -20 1
-28 17 -11 22 -10 22 4 4 9 -11 16 -15 16 -9 0 16 -28 36 -41 28 -7 -5 -7 0 2
16 12 23 11 23 -6 9 -17 -14 -18 -14 -6 8 10 18 9 23 -4 28 -8 3 -12 11 -8 18
4 7 1 7 -9 -1 -18 -16 -32 -5 -17 14 14 17 -2 17 -20 1 -11 -11 -11 -9 0 9 7
12 17 19 23 16 5 -4 6 -1 2 6 -6 9 -13 8 -29 -6 -12 -9 -16 -11 -9 -3 16 19
16 35 -1 21 -10 -8 -14 -7 -14 4 0 8 4 12 9 9 4 -3 8 2 8 11 0 11 -5 15 -14
12 -8 -3 -17 1 -20 9 -3 9 -11 12 -18 8 -7 -4 -4 3 7 16 11 13 14 20 7 16 -12
-7 -34 31 -26 45 2 4 -4 13 -14 20 -15 13 -16 12 -3 -3 7 -10 9 -18 3 -18 -16
0 -22 26 -9 40 9 10 9 11 0 6 -6 -3 -14 0 -16 6 -4 10 -8 9 -16 -2 -8 -11 -11
-11 -12 -2 -2 15 -6 31 -9 35 -2 2 -8 36 -12 64 -1 6 -7 9 -13 6 -7 -2 -15 3
-18 11 -4 9 -1 16 6 16 7 0 4 5 -6 11 -9 5 -21 8 -25 5 -13 -8 -11 28 2 36 10
7 -16 13 -38 9 -5 -1 -3 5 4 14 7 8 10 18 6 22 -3 3 -6 1 -6 -5 0 -7 -4 -12
-8 -12 -5 0 -9 7 -9 15 0 8 5 15 11 15 5 0 1 6 -10 14 -10 8 -19 20 -19 27 0
7 -7 14 -15 16 -13 4 -13 3 0 -6 8 -6 10 -11 4 -11 -21 0 -24 14 -7 34 14 16
15 18 2 8 -9 -7 -24 -10 -33 -6 -13 5 -13 8 6 24 l22 18 -26 -3 c-21 -2 -25 1
-21 16 3 11 0 19 -6 19 -7 0 -9 -4 -6 -10 3 -6 -1 -7 -10 -3 -9 3 -12 9 -7 12
12 8 12 41 0 41 -5 0 -6 5 -3 10 4 6 3 10 -2 9 -4 -1 -15 -1 -23 0 -13 1 -13
2 0 11 11 7 11 10 2 10 -8 0 -10 5 -6 12 5 7 2 9 -9 5 -17 -6 -40 15 -43 41
-2 8 -9 19 -16 23 -9 6 -10 9 -1 9 12 0 36 -34 29 -41 -2 -2 2 -10 10 -17 17
-16 18 -4 2 31 -7 15 -21 30 -32 33 -13 4 -15 9 -7 17 14 14 14 27 0 27 -5 0
-7 -4 -4 -10 10 -17 -12 -11 -26 7 -8 9 -9 14 -2 10 7 -5 9 0 6 13 -3 11 -10
20 -15 20 -5 0 -6 -4 -3 -10 4 -6 -1 -7 -11 -3 -11 4 -13 8 -6 11 8 2 4 10
-10 21 -16 14 -18 20 -8 26 9 6 11 4 5 -5 -5 -9 -4 -11 4 -6 16 10 3 29 -16
22 -8 -3 -11 -1 -8 4 3 6 -2 10 -12 11 -14 0 -14 2 5 9 27 11 29 20 2 15 -11
-2 -22 1 -25 6 -4 5 -10 7 -14 5 -4 -3 -8 1 -8 9 0 8 4 12 9 9 4 -3 8 2 8 11
0 9 -4 14 -9 11 -5 -3 -11 1 -14 9 -4 9 -1 12 9 8 7 -3 14 -1 14 4 0 5 -9 9
-20 10 -11 1 -20 -3 -20 -9 0 -18 -10 -3 -15 21 -2 12 0 19 6 16 5 -4 6 -11 3
-17 -4 -7 -2 -8 4 -4 17 10 2 36 -21 36 -20 0 -20 1 -2 13 14 11 15 16 5 22
-9 5 -11 4 -6 -3 5 -8 0 -12 -13 -12 -11 0 -23 4 -26 10 -3 6 1 7 9 4 9 -3 16
-1 16 5 0 10 -14 15 -33 12 -5 -1 -6 3 -2 9 3 6 11 8 16 5 5 -4 9 -1 9 4 0 6
-6 11 -14 11 -8 0 -17 7 -20 16 -6 15 -4 15 11 4 10 -8 6 -1 -10 14 -15 15
-25 31 -22 37 4 5 1 9 -5 9 -6 0 -8 5 -5 10 5 8 12 7 23 -2 13 -11 13 -9 -1
13 -10 14 -14 29 -10 33 5 4 8 13 8 19 0 7 8 11 18 11 9 -1 17 4 17 12 0 8 5
14 12 14 6 0 8 3 5 6 -4 4 -15 1 -24 -7 -16 -13 -17 -12 -4 3 7 10 10 25 7 34
-5 14 -4 15 9 4 12 -10 15 -10 15 4 0 10 4 15 8 12 4 -2 9 4 9 15 2 18 0 19
-15 7 -15 -12 -16 -11 -4 4 8 9 10 23 6 29 -4 7 -3 9 4 5 6 -3 13 -2 17 4 4 6
10 8 15 5 4 -3 6 4 3 15 -3 11 -10 17 -17 14 -6 -3 0 4 14 16 14 12 25 25 25
29 1 3 6 16 13 28 7 13 10 23 6 23 -3 0 -1 7 6 15 10 12 10 18 -1 32 -10 11
-10 14 -1 9 8 -5 12 -1 12 13 0 10 6 22 13 24 9 4 9 6 0 6 -7 1 -10 7 -7 15 3
8 14 13 25 11 13 -3 17 0 12 8 -12 19 -14 45 -3 52 5 3 6 13 3 22 -5 12 -3 14
8 8 12 -8 12 -6 0 8 -10 13 -10 17 -1 17 10 0 10 3 1 14 -9 11 -9 16 0 22 8 4
9 3 5 -4 -4 -7 -3 -12 2 -12 6 0 12 7 16 15 3 8 1 15 -4 15 -6 0 -10 7 -10 15
0 8 5 15 11 15 5 0 7 -5 3 -12 -4 -7 -3 -8 4 -4 9 5 8 15 -4 38 -9 16 -11 27
-5 23 6 -3 14 1 17 9 3 9 11 13 17 9 6 -3 7 -1 3 6 -6 9 -12 9 -24 -1 -15 -12
-16 -11 -3 5 7 9 10 17 6 17 -4 0 -2 7 6 16 10 12 10 17 0 23 -10 6 -9 10 4
14 9 4 13 3 10 -2 -3 -5 -2 -12 3 -15 4 -2 9 4 9 15 1 10 -2 19 -8 19 -5 0 -9
5 -9 11 0 5 4 8 9 5 4 -3 8 15 8 39 0 25 6 52 14 62 8 9 9 14 2 10 -6 -4 -15
-2 -19 4 -4 7 -3 9 3 6 5 -3 17 2 25 13 15 17 15 19 0 25 -13 5 -14 8 -3 14
10 6 9 10 -4 15 -15 5 -14 9 4 34 14 20 17 32 10 39 -8 8 -8 17 0 31 14 27 14
35 -1 26 -7 -4 -8 -3 -4 4 11 18 15 82 5 87 -11 7 0 35 13 35 6 0 6 -6 -1 -14
-8 -9 -8 -16 -2 -20 5 -4 8 -15 6 -26 -2 -11 -1 -22 3 -24 14 -8 7 81 -7 97
-11 14 -11 18 3 23 9 3 16 10 16 16 0 5 -4 6 -10 3 -5 -3 -10 -1 -10 4 0 6 4
11 8 11 4 0 9 11 10 25 1 14 -3 25 -8 25 -6 0 -10 5 -10 11 0 5 4 8 8 5 5 -3
9 1 9 9 0 8 -3 12 -7 10 -3 -2 -6 5 -6 15 0 14 3 16 13 8 10 -8 12 -7 7 6 -3
9 -11 16 -16 16 -6 0 -5 6 2 15 10 12 10 15 -1 16 -8 0 -5 4 6 9 l20 9 -20 0
c-17 1 -17 3 -5 11 13 9 13 10 0 10 -12 0 -13 2 -1 9 11 7 10 11 -5 21 -16 9
-16 11 -2 6 10 -3 20 0 24 6 4 7 3 8 -4 4 -7 -4 -12 -2 -12 4 0 6 -4 8 -10 5
-5 -3 -10 -1 -10 4 0 6 8 11 18 11 14 0 14 2 3 9 -18 12 -24 41 -7 35 15 -6
16 40 2 53 -5 4 -6 3 -3 -3 3 -6 0 -11 -8 -11 -19 0 -19 2 1 21 14 15 14 16
-1 16 -9 0 -13 5 -10 10 4 6 11 7 17 4 6 -4 4 3 -5 16 -12 18 -14 27 -5 37 8
10 7 13 -2 13 -10 0 -10 3 0 15 7 8 8 15 3 15 -6 0 -9 15 -8 33 1 17 -5 40
-14 50 -13 16 -13 17 1 12 9 -4 19 -1 23 5 3 6 3 10 -2 9 -4 -1 -15 -1 -23 0
-13 1 -13 2 0 11 8 5 10 10 3 10 -6 0 -10 8 -9 18 2 9 -3 34 -10 55 -7 21 -9
35 -4 32 6 -3 10 -1 10 4 0 6 -6 11 -12 11 -9 0 -8 4 2 10 12 8 12 10 -5 10
-18 1 -18 1 -3 11 15 8 16 13 6 29 -7 10 -16 17 -20 14 -4 -3 -5 3 -1 12 4 12
3 15 -5 10 -8 -5 -10 -2 -6 8 3 9 10 13 15 10 15 -9 10 3 -8 17 -14 12 -16 12
-8 0 5 -10 4 -12 -4 -7 -7 5 -9 12 -3 19 12 15 11 47 0 47 -5 0 -8 11 -6 25 2
15 -4 30 -17 40 l-20 15 20 -7 c18 -6 18 -5 6 10 -11 14 -11 17 0 17 11 0 11
2 -1 10 -8 5 -11 10 -6 10 5 0 3 6 -3 13 -6 8 -7 18 -3 23 4 4 0 3 -10 -4 -12
-10 -18 -10 -24 -1 -4 8 -3 9 4 5 19 -11 14 5 -5 20 -17 13 -17 14 0 8 9 -3
17 -1 17 5 0 6 -4 11 -10 11 -5 0 -10 5 -10 11 0 5 5 7 10 4 6 -3 10 -1 10 4
0 6 -8 11 -17 11 -15 0 -16 2 -3 10 13 9 13 10 0 11 -8 1 -19 1 -23 0 -5 -1
-6 3 -3 8 4 5 3 11 -1 14 -5 2 -3 2 4 1 16 -4 26 13 13 21 -6 4 -8 11 -5 16 3
5 0 6 -8 3 -8 -3 -17 2 -20 10 -4 11 -1 13 11 10 9 -3 7 1 -6 8 -18 11 -20 16
-10 27 11 11 10 13 -4 8 -12 -4 -15 -2 -11 8 3 8 10 12 16 8 6 -3 7 -1 3 5 -5
8 -13 9 -24 3 -14 -7 -18 -5 -18 10 0 14 5 18 21 14 13 -4 11 0 -7 10 -28 16
-32 24 -28 59 1 10 -3 15 -8 12 -6 -4 -14 -1 -18 5 -4 7 -3 9 3 6 6 -4 13 2
16 13 3 11 1 18 -4 14 -5 -3 -9 2 -9 11 0 10 -5 13 -12 9 -7 -5 -9 -2 -5 9 4
12 1 15 -11 11 -15 -5 -15 -4 -1 8 14 12 14 15 -2 32 -10 10 -16 23 -12 29 3
6 1 7 -4 4 -14 -9 -24 28 -12 42 6 8 5 8 -3 1 -19 -16 -26 -12 -24 15 2 17 -3
26 -15 30 -17 6 -23 24 -22 63 1 7 -1 11 -4 8 -3 -3 -19 8 -37 24 -17 17 -35
30 -39 30 -5 0 -5 5 -2 10 3 6 11 10 16 10 6 0 7 -5 3 -12 -5 -7 -3 -8 6 -3
10 6 9 11 -5 21 -10 7 -21 12 -24 9 -4 -2 -8 5 -9 16 -4 43 -6 49 -14 49 -5 0
-6 5 -2 12 4 6 3 8 -3 5 -13 -8 -65 43 -69 66 -1 10 2 15 7 12 5 -4 6 1 3 9
-8 20 -24 21 -24 2 0 -8 -5 -18 -12 -22 -6 -4 -8 -3 -5 3 8 13 18 67 10 60 -3
-3 -12 0 -19 8 -15 15 -19 29 -6 21 5 -3 9 1 9 9 0 8 -4 12 -8 9 -4 -2 -14 2
-22 10 -8 8 -18 12 -21 8 -4 -3 -4 1 0 11 3 10 1 17 -6 17 -6 0 -8 5 -4 13 5
8 2 7 -9 -2 -10 -8 -20 -11 -24 -7 -3 3 -2 6 4 6 5 0 10 7 10 15 0 14 -10 19
-29 16 -8 -1 -11 14 -11 49 0 11 -9 15 -28 14 -16 -1 -26 2 -23 7 3 5 10 6 16
3 7 -4 8 -2 4 5 -4 6 -17 9 -29 6 -12 -2 -16 -2 -10 1 16 7 -5 49 -43 84 -25
23 -26 23 -16 3 7 -12 17 -24 24 -26 10 -4 10 -6 1 -6 -17 -1 -46 46 -37 60 4
8 3 9 -4 5 -7 -4 -12 -1 -12 6 0 10 -3 9 -11 -2 -9 -12 -10 -10 -6 8 5 19 3
21 -9 11 -12 -10 -13 -9 -8 5 5 13 2 15 -12 9 -17 -6 -17 -5 -6 10 12 14 11
16 -8 12 -19 -4 -20 -2 -9 13 7 9 10 14 5 10 -4 -3 -20 7 -35 23 -16 16 -32
29 -37 29 -5 -1 1 -9 14 -20 l23 -19 -26 3 c-14 1 -28 6 -33 11 -4 4 -2 5 4 2
7 -4 12 3 12 18 0 16 -5 22 -12 18 -17 -11 -37 -12 -30 -2 3 5 10 7 15 4 5 -4
9 -1 9 4 0 6 -5 11 -10 11 -6 0 -9 3 -9 8 4 26 -2 33 -17 17 -9 -9 -19 -13
-22 -10 -4 3 0 11 8 16 12 9 10 10 -7 6 -13 -3 -24 1 -27 10 -3 8 -11 11 -18
7 -7 -4 -10 -4 -6 1 4 4 0 14 -10 22 -15 13 -15 13 5 3 12 -5 25 -15 28 -20 3
-6 12 -10 18 -10 8 0 7 3 -2 9 -7 5 -11 14 -7 20 4 7 1 9 -7 5 -9 -3 -27 7
-42 23 -15 15 -24 22 -21 16 4 -7 2 -13 -3 -13 -6 0 -11 5 -11 11 0 5 -4 7
-10 4 -5 -3 -10 0 -10 8 0 7 -12 19 -26 26 -18 8 -24 17 -20 29 4 10 -2 7 -14
-8 -15 -19 -18 -20 -13 -6 4 13 3 17 -4 13 -7 -5 -9 1 -6 15 4 19 3 20 -6 8
-9 -13 -11 -12 -11 5 -1 19 -1 19 -13 -2 -12 -22 -13 -22 -25 -3 -8 13 -8 21
-1 25 6 4 3 12 -8 20 -14 10 -22 11 -33 2 -8 -6 -12 -7 -7 -2 10 12 -62 77
-77 68 -17 -11 -37 -12 -30 -2 3 5 10 7 15 4 5 -3 6 1 3 10 -5 13 -9 13 -22 3
-12 -10 -14 -10 -8 0 5 8 1 12 -12 12 -10 0 -24 10 -31 23 -6 12 -9 14 -7 4 5
-15 2 -16 -14 -7 -11 6 -20 13 -20 16 0 3 4 2 10 -1 6 -3 7 1 4 10 -5 13 -9
13 -22 3 -13 -11 -15 -10 -10 2 5 12 -1 16 -23 14 -19 -1 -29 3 -29 12 0 8 6
11 18 7 9 -3 14 -3 10 1 -3 4 -18 9 -32 10 -23 3 -25 1 -14 -13 8 -10 4 -9
-10 3 -12 11 -21 25 -18 31 3 8 -5 11 -20 9 -14 -1 -29 5 -35 14 -10 16 -10
15 -5 0 3 -10 1 -18 -4 -18 -6 0 -10 6 -10 14 0 8 -7 17 -16 20 -8 3 -13 2
-10 -2 3 -5 -1 -9 -9 -9 -8 0 -13 2 -10 5 2 2 -3 11 -11 19 -8 8 -11 19 -8 25
4 7 2 8 -4 4 -6 -4 -9 -14 -6 -24 5 -14 4 -15 -5 -2 -9 12 -13 12 -19 2 -7
-10 -11 -10 -21 2 -7 8 -9 21 -5 27 4 7 3 9 -4 5 -5 -3 -13 0 -16 6 -3 7 -3 2
0 -12 4 -21 3 -22 -6 -7 -6 9 -15 15 -21 12 -5 -4 -9 -2 -9 4 0 5 6 12 13 15
6 3 1 3 -12 0 -13 -3 -34 0 -48 7 -20 11 -26 11 -32 0 -6 -10 -10 -9 -14 4 -4
9 -3 14 1 11 4 -2 14 0 22 5 12 7 11 8 -5 6 -11 -1 -26 -6 -32 -10 -12 -8 -18
4 -14 26 1 5 -3 6 -9 2 -6 -3 -7 -12 -3 -18 5 -8 2 -8 -9 0 -8 7 -18 10 -22 6
-4 -4 -10 4 -13 17 -6 21 -7 22 -13 6 -6 -17 -7 -17 -22 -2 -11 10 -19 12 -23
6 -5 -8 -12 -7 -22 2 -9 7 -19 12 -22 12 -3 -1 -16 2 -29 7 -13 5 -31 9 -40 9
-15 0 -15 -2 -2 -11 13 -9 13 -10 0 -6 -8 2 -14 10 -12 17 2 7 -5 9 -20 5 -22
-6 -22 -5 2 9 23 13 22 14 -21 9 -27 -3 -55 0 -69 7 -18 10 -21 10 -14 -2 6
-10 5 -11 -7 -2 -19 15 -71 15 -62 0 4 -6 -1 -5 -10 3 -18 14 -23 26 -8 16 5
-3 12 -2 15 3 2 4 -8 9 -24 10 -16 1 -31 -2 -35 -8 -3 -5 -12 -10 -18 -10 -7
0 -6 4 3 11 12 7 8 9 -15 7 -17 -2 -36 3 -43 12 -8 8 -11 10 -8 4 4 -8 -5 -11
-24 -10 -19 0 -30 6 -30 16 -1 12 -2 12 -10 -2 -13 -21 -51 -13 -43 10 4 13 3
14 -5 4 -11 -16 -21 -15 -41 1 -11 10 -13 8 -6 -13 l7 -25 -21 24 c-11 13 -22
21 -22 18 -1 -4 -2 -11 -3 -17 0 -5 -5 -9 -11 -7 -5 1 -9 5 -7 10 1 4 -1 7 -5
8 -5 0 -16 2 -26 4 -9 2 -15 -1 -11 -6 3 -5 -2 -9 -10 -9 -9 0 -16 5 -16 11 0
6 -9 1 -20 -12 -11 -13 -20 -19 -19 -14 4 31 -17 41 -49 21 -7 -4 -12 -2 -12
4 0 6 -5 8 -10 5 -6 -4 -7 -11 -4 -17 4 -5 -5 -3 -19 7 -17 10 -27 13 -32 6
-3 -6 -17 -11 -31 -11 -17 0 -23 -4 -18 -12 4 -7 3 -8 -4 -4 -6 4 -10 12 -8
19 1 7 1 9 -1 4 -3 -4 -10 -4 -16 0 -6 4 -8 0 -5 -9 4 -8 0 -15 -8 -15 -7 0
-11 3 -9 7 2 3 -5 12 -17 19 -11 7 -17 8 -14 3 3 -6 -1 -13 -10 -16 -22 -8
-26 -8 -19 3 3 5 1 12 -4 15 -5 4 -8 0 -7 -6z m191 -7 c3 -5 2 -12 -3 -15 -5
-3 -9 1 -9 9 0 17 3 19 12 6z m-605 -107 c0 -8 -19 -13 -24 -6 -3 5 1 9 9 9 8
0 15 -2 15 -3z m-356 -105 c-3 -5 -10 -7 -15 -3 -5 3 -7 10 -3 15 3 5 10 7 15
3 5 -3 7 -10 3 -15z m2320 -77 c3 -5 -1 -9 -9 -9 -8 0 -12 4 -9 9 3 4 7 8 9 8
2 0 6 -4 9 -8z m-2703 -115 c-10 -9 -11 -8 -5 6 3 10 9 15 12 12 3 -3 0 -11
-7 -18z m-26 -7 c-3 -5 -12 -10 -18 -10 -7 0 -6 4 3 10 19 12 23 12 15 0z
m3015 -41 c0 -5 -4 -9 -8 -9 -5 0 -9 7 -9 15 0 8 4 12 9 9 4 -3 8 -9 8 -15z
m-3327 -153 c4 -10 1 -13 -8 -9 -8 3 -12 9 -9 14 7 12 11 11 17 -5z m3527 -6
c0 -5 -2 -10 -4 -10 -3 0 -8 5 -11 10 -3 6 -1 10 4 10 6 0 11 -4 11 -10z m193
-135 c-3 -9 -8 -14 -10 -11 -3 3 -2 9 2 15 9 16 15 13 8 -4z m92 -85 c-3 -5
-12 -10 -18 -10 -7 0 -6 4 3 10 19 12 23 12 15 0z m160 -160 c-3 -5 -12 -10
-18 -10 -7 0 -6 4 3 10 19 12 23 12 15 0z m15 -20 c0 -5 -5 -10 -11 -10 -5 0
-7 5 -4 10 3 6 8 10 11 10 2 0 4 -4 4 -10z m-2132 -58 c-12 -13 -10 -14 9 -4
15 9 24 9 28 1 5 -7 13 -5 24 5 18 16 31 12 31 -8 0 -6 -5 -4 -10 4 -6 9 -10
10 -10 3 0 -19 17 -24 30 -8 9 11 16 12 30 3 10 -7 16 -16 13 -22 -3 -5 -1 -6
6 -2 6 4 9 11 6 16 -2 4 8 7 24 6 16 0 27 -4 24 -9 -2 -4 -9 -5 -14 -2 -15 10
-10 -2 8 -16 9 -8 14 -9 11 -4 -4 6 3 17 15 25 20 12 21 11 9 -2 -10 -13 -10
-17 2 -21 18 -7 30 8 20 26 -4 6 3 2 15 -10 24 -25 39 -31 25 -10 -5 7 -1 4 9
-6 12 -14 17 -15 18 -6 0 11 2 11 6 1 4 -10 8 -10 21 0 12 10 14 10 8 1 -4 -8
-2 -13 4 -13 6 0 9 -4 6 -8 -2 -4 6 -8 19 -8 13 0 21 4 19 8 -3 4 0 8 5 8 6 0
11 -4 11 -10 0 -5 5 -10 11 -10 5 0 8 4 5 8 -3 5 2 9 10 9 8 0 13 -6 10 -13
-3 -8 5 -11 25 -10 20 2 28 -2 25 -10 -4 -10 1 -11 17 -5 31 12 51 3 36 -15
-10 -12 -9 -13 6 -8 11 5 16 3 12 -2 -3 -6 5 -10 18 -10 13 0 22 3 20 6 -2 3
5 6 15 6 14 0 16 -3 8 -13 -8 -10 -7 -12 4 -8 9 4 18 0 21 -9 4 -9 14 -12 26
-9 13 3 21 1 21 -7 0 -9 4 -9 17 1 11 10 14 10 9 2 -4 -7 -2 -13 3 -13 6 0 11
-5 11 -11 0 -5 -5 -7 -12 -3 -7 5 -8 3 -3 -6 7 -11 10 -10 19 1 6 8 18 15 26
17 12 3 13 1 3 -9 -7 -7 -13 -18 -13 -23 0 -6 5 -5 12 2 10 10 15 7 26 -10 7
-13 11 -15 8 -6 -2 9 1 19 8 21 10 4 12 -1 10 -16 -2 -12 -2 -17 2 -10 4 9 11
7 27 -7 23 -22 42 -27 31 -8 -4 7 -3 8 4 4 7 -4 12 -13 12 -19 0 -7 10 -23 21
-37 l21 -25 -16 27 c-25 43 -19 45 15 5 17 -20 35 -35 39 -32 10 6 76 -55 72
-67 -1 -5 2 -7 8 -3 7 4 7 13 -1 26 -6 12 -8 23 -6 25 3 3 11 -9 18 -25 8 -17
18 -31 22 -31 5 0 5 5 1 12 -4 7 -3 8 5 4 6 -4 9 -12 6 -17 -4 -5 -1 -17 4
-26 6 -10 11 -13 11 -7 0 23 30 24 40 1 10 -21 10 -21 -4 -3 -15 18 -15 18
-13 -1 1 -19 5 -21 45 -25 10 -1 19 -8 19 -14 0 -7 -7 -10 -16 -7 -14 4 -14 3
-1 -5 10 -8 18 -8 27 0 8 6 16 8 20 4 3 -3 1 -6 -5 -6 -9 0 -9 -6 -1 -23 8
-18 17 -23 37 -21 15 2 19 1 10 -2 -17 -5 -26 -25 -10 -23 22 4 42 -2 37 -11
-4 -6 -11 -8 -16 -5 -5 4 -6 -2 -2 -11 4 -11 8 -13 11 -6 2 7 10 12 17 12 18
0 28 -32 13 -42 -7 -4 -8 -8 -3 -8 6 0 17 6 24 13 10 8 12 9 7 0 -4 -7 3 -17
16 -24 13 -7 27 -18 31 -26 5 -7 13 -11 19 -7 6 4 6 -2 -1 -15 -7 -11 -9 -22
-6 -22 20 -5 31 -3 38 6 4 6 7 1 5 -10 -2 -12 2 -19 10 -17 8 1 11 -2 8 -7 -9
-14 15 -61 31 -61 7 0 13 -9 13 -20 0 -11 5 -20 11 -20 5 0 8 4 5 8 -3 5 2 9
10 9 10 0 11 -4 4 -11 -17 -17 -11 -28 13 -21 19 5 19 4 5 -5 -24 -15 -11 -40
20 -40 25 0 25 0 6 -16 -10 -8 -14 -13 -9 -11 6 3 15 -1 22 -8 10 -11 10 -15
0 -19 -7 -4 -2 -4 10 -2 12 2 21 1 20 -4 -1 -4 9 -17 23 -28 22 -18 23 -20 5
-17 -11 2 -24 4 -28 4 -5 1 -6 5 -2 10 3 5 1 12 -4 15 -5 4 -12 2 -15 -3 -4
-5 7 -19 24 -31 17 -12 28 -26 25 -31 -4 -5 2 -6 12 -2 16 6 16 5 4 -10 -11
-14 -11 -18 3 -23 14 -5 14 -9 4 -22 -12 -14 -10 -14 11 -3 13 7 21 8 17 3 -3
-6 0 -13 6 -15 7 -3 4 -6 -7 -6 -16 -1 -17 -3 -5 -10 8 -6 18 -7 23 -4 5 3 4
-5 -3 -17 -11 -20 -10 -22 3 -17 9 3 20 0 26 -7 13 -15 4 -49 -10 -40 -5 3 -6
-2 -3 -11 6 -14 8 -14 21 2 8 10 11 12 8 5 -4 -7 1 -22 10 -32 15 -17 16 -22
4 -37 -8 -9 -9 -14 -2 -10 13 8 22 -3 28 -35 3 -12 12 -26 20 -31 8 -4 12 -13
9 -19 -4 -6 0 -15 7 -20 12 -8 11 -9 -1 -5 -8 2 -14 12 -14 21 1 9 -2 16 -7
16 -14 0 -10 -26 6 -40 8 -7 13 -16 10 -20 -8 -13 36 -61 48 -53 7 4 6 0 -1
-10 -15 -18 -7 -41 11 -30 7 4 6 0 -2 -10 -14 -18 -26 -24 -17 -8 3 5 -2 15
-12 22 -15 13 -16 12 -3 -3 7 -10 10 -18 5 -18 -5 0 4 -11 20 -25 16 -14 25
-25 20 -25 -6 0 -16 6 -23 13 -11 10 -11 8 0 -10 7 -12 17 -19 21 -17 4 3 8 0
8 -5 0 -6 -4 -11 -10 -11 -11 0 -8 -36 5 -47 4 -5 5 -2 0 6 -6 10 -4 12 4 7 7
-5 10 -11 7 -14 -3 -3 -1 -11 5 -19 13 -15 -1 -18 -19 -3 -8 7 -9 7 -3 -1 5
-6 8 -17 7 -23 -2 -6 -1 -8 1 -3 12 19 21 4 12 -19 -9 -25 -8 -26 8 -13 9 8
14 9 10 2 -4 -6 -2 -13 4 -15 5 -2 7 -11 4 -21 -4 -9 -10 -15 -15 -12 -17 10
0 -45 19 -64 13 -13 19 -27 14 -34 -4 -7 -8 -38 -8 -69 -1 -49 1 -55 14 -45
12 10 13 9 2 -10 -6 -13 -9 -23 -7 -23 3 0 1 -11 -4 -25 -6 -16 -6 -26 1 -31
6 -4 5 -11 -3 -22 -10 -12 -10 -14 0 -8 7 4 12 2 12 -4 0 -6 5 -8 12 -4 7 4 8
3 4 -5 -4 -6 -12 -9 -17 -6 -5 4 -9 3 -10 -2 0 -4 -2 -18 -3 -31 -2 -16 1 -21
11 -18 9 4 11 1 7 -5 -4 -6 -1 -15 6 -19 8 -5 7 -9 -5 -13 -10 -5 -14 -3 -9 5
4 7 3 8 -5 4 -9 -6 -9 -11 -1 -21 11 -14 9 -59 -3 -71 -4 -4 -7 -12 -7 -18 0
-6 5 -5 12 2 7 7 17 12 22 12 7 0 8 -3 1 -8 -5 -4 -17 -16 -25 -26 -14 -18
-13 -19 2 -13 15 5 16 4 6 -13 -7 -10 -17 -16 -23 -13 -5 4 -1 -4 10 -17 11
-13 15 -20 8 -17 -7 5 -11 -5 -10 -30 1 -21 -4 -38 -11 -41 -9 -3 -8 -8 5 -18
15 -12 15 -13 2 -8 -10 3 -20 0 -25 -7 -4 -8 -3 -10 4 -5 7 4 12 2 12 -4 0 -6
5 -8 12 -4 7 4 8 3 4 -5 -4 -6 -13 -8 -19 -4 -7 4 -5 -2 3 -12 13 -17 13 -18
-1 -13 -9 4 -16 1 -16 -8 0 -7 4 -11 9 -8 4 3 8 0 8 -5 0 -6 -5 -11 -11 -11
-8 0 -8 -4 0 -14 10 -11 8 -17 -6 -25 -10 -6 -13 -11 -6 -11 16 0 9 -31 -10
-42 -16 -8 -16 -11 0 -36 17 -26 17 -27 -2 -12 -11 8 -17 10 -13 6 4 -5 2 -16
-5 -24 -8 -10 -8 -13 -1 -9 7 4 14 1 17 -7 4 -10 -1 -12 -16 -9 -21 5 -21 5
-4 -9 18 -14 18 -15 -7 -39 -14 -13 -26 -28 -26 -34 0 -5 5 -3 10 5 8 13 10
13 10 -2 0 -9 -9 -20 -20 -23 -21 -7 -28 -25 -10 -25 6 0 10 5 10 12 0 6 2 9
5 6 9 -8 -6 -38 -16 -32 -5 3 -6 -2 -3 -10 4 -9 1 -16 -6 -16 -9 0 -9 -4 1
-17 13 -15 11 -16 -11 -10 -22 5 -23 5 -7 -7 25 -19 21 -29 -5 -15 -20 11 -22
10 -10 -3 11 -13 10 -21 -6 -47 -10 -17 -21 -30 -23 -28 -2 1 1 -3 8 -9 18
-16 16 -25 -3 -17 -14 5 -15 3 -5 -15 7 -14 8 -23 1 -27 -6 -4 -7 -11 -4 -17
4 -7 2 -8 -5 -4 -6 4 -9 13 -5 19 3 7 -1 4 -9 -5 -8 -10 -17 -15 -20 -12 -3 3
-4 -2 -3 -13 2 -10 -2 -24 -8 -32 -8 -11 -8 -13 1 -8 7 4 10 1 9 -9 -3 -18
-26 -35 -38 -28 -5 3 -8 2 -7 -3 3 -19 -2 -34 -10 -29 -11 7 -9 -13 3 -32 4
-7 4 -12 -1 -11 -30 5 -35 -2 -17 -23 10 -13 12 -17 4 -10 -18 16 -38 16 -22
0 15 -15 15 -28 1 -28 -5 0 -7 5 -4 10 3 6 -1 10 -9 10 -19 0 -20 -11 -3 -29
10 -11 10 -13 0 -7 -8 4 -13 1 -13 -8 0 -10 -6 -13 -15 -10 -11 5 -13 2 -8
-12 4 -11 3 -15 -4 -11 -16 10 -43 -36 -32 -55 7 -13 4 -16 -16 -13 -14 1 -25
-2 -25 -6 0 -5 5 -9 11 -9 5 0 7 -5 4 -10 -4 -6 -9 -8 -13 -6 -4 2 -16 -2 -27
-10 -10 -8 -13 -14 -7 -14 7 0 12 -7 12 -15 0 -8 -5 -15 -11 -15 -5 0 -7 4 -4
10 4 6 -1 7 -11 3 -15 -5 -15 -7 0 -15 9 -5 16 -14 16 -21 0 -8 -3 -8 -8 -2
-4 6 -16 11 -27 13 -20 3 -20 3 -1 -11 15 -11 16 -16 6 -22 -9 -5 -11 -4 -6 3
11 18 -10 14 -25 -5 -8 -10 -9 -14 -2 -10 6 4 15 2 19 -4 4 -7 3 -9 -2 -6 -6
3 -16 1 -24 -4 -13 -8 -13 -10 0 -19 13 -9 13 -10 0 -11 -8 -1 -21 -1 -29 0
-8 2 -10 -2 -5 -11 6 -10 3 -9 -10 1 -9 8 -16 10 -15 5 3 -18 -1 -37 -7 -31
-7 7 -34 -17 -34 -29 0 -5 5 -3 12 4 20 20 30 14 11 -6 -12 -13 -22 -16 -30
-9 -9 6 -13 6 -13 -2 0 -7 -4 -10 -9 -7 -5 4 -7 -3 -4 -13 5 -20 -29 -47 -47
-36 -5 3 -11 1 -14 -4 -4 -5 -1 -13 5 -17 8 -5 9 -3 4 6 -5 9 -4 11 4 6 9 -6
9 -11 0 -22 -9 -11 -16 -11 -33 -2 -19 10 -20 10 -7 -5 9 -12 10 -17 2 -17 -7
0 -9 -4 -6 -10 4 -6 -1 -7 -12 -3 -15 6 -16 5 -5 -9 11 -14 10 -16 -7 -11 -17
4 -19 1 -16 -17 3 -18 2 -20 -10 -10 -18 15 -20 24 -3 14 7 -4 8 -3 4 4 -9 16
-57 -15 -50 -32 3 -8 -5 -12 -26 -10 -16 1 -30 -2 -30 -8 0 -5 10 -6 23 -3 17
5 19 4 7 -4 -8 -6 -11 -11 -7 -11 5 0 5 -5 2 -10 -4 -6 -12 -7 -18 -3 -7 4
-19 8 -27 10 -10 1 -9 -3 5 -14 19 -15 19 -15 -4 -8 -18 5 -22 4 -16 -6 6 -9
2 -11 -14 -6 -18 4 -20 3 -10 -9 6 -8 9 -17 5 -21 -3 -3 -6 -2 -6 4 0 6 -7 14
-16 17 -8 3 -13 2 -11 -2 3 -4 -1 -13 -9 -20 -13 -12 -18 -8 -15 11 1 5 -3 6
-8 3 -5 -4 -8 -15 -6 -26 3 -14 -1 -17 -13 -13 -15 6 -15 5 -3 -10 12 -15 12
-17 -3 -11 -9 3 -16 10 -16 15 0 5 -5 9 -11 9 -5 0 -7 -4 -4 -10 3 -5 1 -11
-4 -11 -6 -1 -16 -2 -22 -3 -7 0 -15 -10 -20 -21 -4 -11 -8 -15 -8 -9 -1 6 -8
11 -16 11 -13 0 -13 -2 0 -17 13 -14 12 -16 -5 -16 -10 0 -17 3 -15 6 2 4 -2
7 -9 7 -8 0 -11 -8 -8 -19 2 -10 -1 -18 -7 -18 -7 0 -10 4 -7 9 3 5 -2 12 -11
15 -10 4 -14 4 -11 0 4 -3 0 -13 -8 -21 -8 -8 -11 -19 -8 -25 4 -7 2 -8 -5 -4
-6 4 -9 11 -6 16 3 5 0 12 -7 16 -7 4 -10 3 -5 -1 4 -5 0 -17 -9 -27 -13 -14
-20 -15 -31 -6 -11 9 -15 7 -20 -12 l-6 -22 -12 22 c-10 19 -13 20 -18 6 -5
-12 -3 -15 6 -10 6 4 9 4 5 0 -3 -4 -8 -6 -11 -4 -8 6 -37 -25 -31 -34 4 -6
-6 -2 -22 8 -27 17 -28 17 -15 1 12 -15 12 -17 -4 -11 -14 6 -16 4 -10 -6 5
-8 4 -11 -3 -6 -6 4 -10 12 -8 19 1 7 1 9 -1 4 -3 -4 -10 -4 -15 -1 -7 5 -8 2
-3 -6 6 -10 4 -12 -8 -7 -9 3 -19 2 -22 -3 -3 -5 -19 -8 -36 -6 -16 2 -32 -1
-35 -5 -3 -5 -11 -6 -17 -2 -8 4 -7 1 1 -9 11 -14 10 -16 -7 -11 -12 3 -21 10
-21 16 0 6 -3 7 -6 4 -4 -4 -1 -14 7 -23 13 -16 12 -16 -8 -5 -22 11 -27 8
-24 -14 1 -5 -5 -2 -12 7 -16 20 -28 14 -20 -10 4 -14 3 -14 -5 -3 -6 8 -15
10 -23 5 -10 -6 -10 -3 1 12 13 17 13 18 0 8 -8 -6 -27 -10 -42 -9 -15 1 -25
-2 -22 -7 3 -4 10 -6 15 -3 5 4 9 2 9 -3 0 -5 -13 -9 -30 -8 -16 0 -30 4 -30
9 0 4 -5 5 -10 2 -6 -4 -8 -9 -6 -13 5 -9 -57 -7 -72 2 -6 3 -15 -2 -21 -11
-6 -10 -11 -13 -11 -6 0 7 -7 10 -15 7 -8 -4 -12 -11 -8 -18 3 -6 0 -5 -8 2
-12 11 -12 14 1 22 8 5 10 10 4 10 -5 0 -15 -5 -22 -12 -15 -15 -42 -19 -42
-7 0 5 -5 9 -11 9 -5 0 -8 -4 -5 -8 2 -4 -4 -9 -15 -9 -18 -2 -19 0 -7 15 11
14 9 14 -16 -2 -16 -10 -25 -13 -22 -7 4 6 0 11 -9 11 -10 0 -14 -5 -9 -12 6
-10 4 -10 -7 0 -19 17 -46 15 -58 -5 -6 -11 -11 -13 -11 -5 0 7 -5 10 -12 6
-7 -4 -8 -3 -4 5 5 8 -1 11 -21 9 -16 -1 -34 1 -40 5 -6 4 -15 3 -18 -3 -4 -7
-11 -7 -18 -2 -7 5 -20 8 -30 7 -9 -2 -15 1 -11 6 3 5 -12 9 -33 9 -28 0 -34
3 -23 10 9 6 10 10 3 10 -6 0 -15 -4 -18 -10 -3 -5 -14 -10 -23 -10 -15 0 -15
2 -2 10 11 7 2 9 -28 6 -23 -2 -45 1 -49 7 -3 5 -1 7 5 3 6 -3 13 -2 16 2 3 5
-5 9 -17 8 -12 -1 -21 -8 -19 -15 1 -7 -2 -10 -8 -6 -6 3 -8 11 -5 16 4 5 -10
9 -29 9 -20 0 -36 5 -36 11 0 5 5 7 10 4 16 -10 11 1 -7 16 -11 10 -14 10 -9
2 4 -8 2 -13 -4 -13 -6 0 -8 -5 -4 -12 5 -9 2 -8 -10 1 -9 8 -14 21 -11 30 4
10 -2 7 -15 -6 -25 -27 -27 -28 -27 -8 0 8 5 11 10 8 6 -3 7 -1 3 6 -6 9 -11
9 -24 -1 -9 -8 -13 -8 -9 -2 9 15 -18 26 -64 28 -20 0 -43 7 -52 14 -9 8 -22
10 -28 6 -8 -4 -9 -3 -5 4 7 11 -6 17 -27 13 -5 -1 -6 3 -2 9 3 6 11 7 17 4 6
-4 8 -2 5 4 -4 5 -15 8 -25 6 -9 -3 -27 4 -39 15 -25 23 -38 27 -27 9 4 -7 -3
-4 -15 7 -13 11 -26 19 -29 17 -4 -2 -8 2 -10 10 -2 9 0 8 8 -2 8 -10 10 -11
8 -2 -2 8 -6 12 -9 10 -3 -2 -14 4 -25 12 -18 14 -18 14 -4 -5 14 -18 14 -19
-2 -7 -10 8 -23 10 -30 6 -10 -6 -9 -3 1 9 15 18 13 19 -35 20 -11 0 -21 6
-21 13 0 9 4 11 12 4 8 -7 12 -5 12 4 0 15 -14 16 -34 3 -8 -5 -13 -4 -13 3 0
6 -11 15 -25 22 -13 6 -22 15 -19 19 3 5 1 9 -5 9 -5 0 -12 -6 -14 -12 -4 -8
-6 -7 -6 4 -1 9 5 19 12 21 7 4 6 6 -5 6 -9 1 -19 -5 -21 -11 -3 -8 -6 -5 -6
5 -1 12 -5 16 -13 11 -8 -5 -7 0 2 11 14 17 14 18 -10 5 -24 -13 -24 -12 -10
5 9 11 10 16 3 11 -8 -4 -13 -2 -13 4 0 6 -4 9 -9 6 -5 -4 -14 6 -20 21 -10
26 -11 26 -7 3 5 -23 4 -24 -8 -7 -11 14 -15 15 -20 5 -3 -7 -3 -3 0 10 4 16
1 22 -11 22 -10 0 -14 -5 -9 -12 5 -10 3 -10 -7 0 -12 11 -12 14 1 22 13 9 13
10 -1 10 -8 0 -21 -6 -29 -12 -8 -7 -7 -4 3 8 16 20 16 21 -7 33 -13 8 -30 10
-38 6 -7 -5 -10 -5 -6 0 5 5 -1 14 -12 22 -11 8 -20 21 -20 29 0 8 -6 14 -14
14 -7 0 -19 14 -26 30 -7 17 -17 30 -22 30 -5 0 -7 -4 -4 -8 3 -5 -1 -9 -9 -9
-13 0 -12 4 2 19 9 10 12 18 6 18 -5 0 -18 7 -29 16 -19 15 -19 16 1 9 16 -5
17 -4 8 6 -10 10 -16 9 -28 -1 -8 -7 -18 -10 -22 -6 -3 3 -1 6 5 6 7 0 12 7
12 16 0 11 -6 15 -20 11 -11 -3 -18 0 -17 7 1 6 -4 10 -11 8 -8 -1 -11 2 -7 8
3 5 1 10 -6 10 -7 0 -9 3 -6 7 4 3 15 -1 25 -10 16 -15 19 -15 19 -2 0 8 -2
13 -5 11 -6 -7 -31 18 -25 26 2 4 -4 5 -14 1 -16 -6 -17 -5 -3 12 9 11 10 16
3 11 -11 -6 -17 3 -15 25 1 3 -6 6 -14 7 -8 1 -21 3 -29 4 -8 1 -13 4 -10 6 3
3 -3 14 -12 25 -10 11 -13 17 -7 14 7 -4 14 -1 17 7 4 9 -2 12 -19 10 -13 -1
-23 1 -23 4 3 19 -2 33 -10 28 -4 -3 -8 11 -8 31 1 20 -4 38 -11 41 -7 2 -12
-1 -12 -8 0 -6 5 -8 12 -4 7 5 8 3 3 -5 -5 -9 -10 -10 -18 -2 -7 7 -6 15 3 26
7 8 10 18 6 22 -3 3 -6 1 -6 -5 0 -7 -8 -12 -17 -12 -10 0 -14 4 -8 8 15 11
12 37 -8 56 -9 10 -17 13 -17 7 0 -5 8 -15 18 -20 9 -6 12 -11 6 -11 -6 0 -17
7 -24 15 -10 12 -10 18 1 31 12 15 11 16 -11 11 -14 -4 -19 -4 -12 -1 18 8 15
24 -5 25 -11 0 -13 3 -6 6 10 3 10 10 2 24 -5 11 -7 24 -4 29 3 5 0 7 -8 4 -8
-3 -18 1 -24 8 -13 17 -13 47 1 44 6 -2 8 -1 3 1 -4 3 -4 9 -1 15 4 6 -1 6
-14 -1 -17 -9 -20 -8 -17 7 2 9 4 17 5 17 1 0 3 7 5 16 2 12 -2 15 -18 11 -19
-5 -19 -4 -6 10 7 9 19 13 24 10 6 -3 6 -1 2 3 -11 13 -38 15 -31 3 4 -6 2 -8
-3 -5 -6 4 -8 18 -5 32 4 21 1 24 -14 18 -16 -6 -17 -5 -4 9 8 9 20 13 25 10
6 -3 4 2 -3 11 -8 9 -10 22 -6 29 6 10 3 9 -9 -1 -12 -9 -17 -10 -17 -2 0 7
-4 10 -8 7 -4 -2 -8 4 -8 14 0 14 3 16 13 8 10 -8 12 -7 7 6 -3 9 -11 16 -16
16 -6 0 -4 7 3 16 12 15 11 16 -11 10 -17 -5 -20 -4 -12 2 17 12 17 22 0 33
-10 7 -10 9 2 9 13 0 13 1 0 10 -10 6 -14 22 -12 47 2 29 0 34 -7 23 -14 -20
-14 -4 -1 21 12 22 1 25 -20 7 -12 -11 -12 -10 -2 3 6 9 8 20 4 24 -4 5 -1 5
5 1 9 -5 11 -2 7 8 -3 9 -11 16 -18 16 -6 0 -4 4 4 10 8 5 11 12 7 16 -3 4
-12 3 -20 -2 -7 -5 -4 -1 6 9 11 9 15 17 9 17 -5 0 -12 7 -15 14 -4 9 -1 13 7
10 7 -3 12 4 12 20 0 14 -4 22 -8 20 -5 -3 -6 -10 -3 -15 4 -5 1 -9 -5 -9 -7
0 -9 8 -5 21 4 12 3 19 -1 16 -5 -3 -9 17 -9 43 0 31 3 46 10 42 5 -3 4 2 -4
11 -7 9 -18 14 -24 10 -6 -3 -7 -1 -3 6 4 6 11 9 16 6 5 -3 12 0 16 6 4 8 3 9
-4 5 -7 -4 -12 -2 -12 4 0 6 -6 8 -13 5 -6 -4 -2 2 10 12 19 16 20 20 8 37 -8
10 -12 23 -9 28 3 5 7 65 8 133 2 107 0 122 -13 117 -10 -4 -7 3 6 18 12 12
19 28 15 34 -9 16 -9 39 2 54 5 7 4 12 -3 12 -7 0 -9 5 -6 10 4 6 10 8 15 5 4
-3 6 5 2 17 -3 12 -1 19 4 15 13 -8 12 46 -1 55 -6 5 -4 8 5 8 12 0 13 2 1 9
-10 7 -11 12 -1 27 10 17 11 17 6 1 -3 -10 -2 -15 3 -12 16 10 9 43 -8 37 -14
-5 -14 -4 -1 10 8 8 22 13 30 10 9 -3 8 1 -4 10 -13 10 -15 17 -8 22 16 10 15
29 0 21 -7 -4 -5 0 4 8 14 11 15 16 5 26 -9 10 -8 11 8 5 18 -7 19 -6 6 10
-13 15 -12 18 7 23 20 5 21 6 4 22 -10 9 -12 12 -5 7 8 -5 13 -4 13 3 0 7 3
10 8 8 4 -3 7 5 7 18 0 13 -3 21 -7 18 -5 -2 -8 3 -8 12 0 9 3 14 8 12 4 -2
15 4 25 15 9 10 13 18 7 18 -15 0 -12 31 5 44 16 12 30 61 15 51 -5 -3 -12 0
-16 6 -4 7 -3 9 3 6 6 -4 19 1 29 9 16 13 16 15 2 10 -10 -3 -20 0 -24 6 -4 7
-3 8 4 4 7 -4 12 -1 12 8 0 9 5 16 11 16 5 0 7 -4 4 -10 -3 -6 1 -7 10 -4 14
6 14 8 -2 21 -10 8 -12 11 -4 7 10 -5 11 -1 7 14 -4 12 -2 23 5 28 7 4 9 3 5
-4 -3 -6 -3 -13 2 -16 4 -2 9 7 10 20 1 17 -2 23 -10 18 -7 -4 -8 -3 -4 5 4 6
12 9 17 5 6 -3 10 0 8 7 -4 32 1 40 24 35 12 -3 16 -3 9 0 -10 5 -10 9 0 22 8
10 9 13 1 9 -7 -5 -10 -1 -9 10 2 10 11 20 22 22 27 5 45 33 32 48 -8 10 -6
13 6 13 21 0 20 10 -1 26 -17 12 -17 12 2 11 13 -1 20 4 20 15 0 23 11 32 21
17 4 -7 3 -10 -4 -6 -6 5 -8 -1 -4 -15 5 -21 6 -21 12 -2 4 10 3 28 -3 39 -9
18 -9 19 8 5 17 -14 17 -13 10 9 -5 18 -4 22 6 16 9 -6 11 -2 6 14 -5 19 -3
20 11 9 13 -11 14 -11 7 1 -6 11 -4 13 8 8 20 -7 21 -3 7 23 -7 13 -7 21 2 26
7 4 8 3 4 -4 -4 -7 -1 -12 7 -12 8 0 13 10 13 22 -1 13 5 23 13 23 8 0 16 6
19 14 3 10 0 11 -9 5 -8 -4 -3 6 11 23 14 17 27 29 29 27 2 -2 -2 -10 -8 -18
-8 -10 -9 -16 -1 -21 6 -4 10 -3 9 2 -3 17 14 53 22 47 5 -3 9 0 9 6 0 6 5 8
13 4 9 -6 9 -4 -1 8 -16 19 0 33 26 23 9 -3 13 -3 9 1 -4 4 -1 14 6 23 11 14
10 14 -5 2 -10 -7 -18 -9 -18 -3 0 13 29 24 43 15 7 -4 6 1 -2 10 -12 15 -12
17 4 11 13 -5 16 -4 11 4 -7 11 6 17 28 13 5 -1 4 4 -2 12 -12 14 -6 27 12 27
6 0 4 -5 -4 -10 -8 -5 -10 -10 -5 -10 13 0 35 21 35 33 0 4 -5 5 -12 1 -7 -4
-8 -3 -4 5 6 9 11 9 24 -1 9 -8 13 -8 9 -1 -9 14 2 43 15 43 6 0 4 -8 -3 -17
-12 -15 -12 -16 1 -8 8 5 21 10 28 11 8 2 17 6 20 10 4 4 -1 4 -10 1 -12 -4
-18 -1 -18 9 0 11 6 14 16 10 10 -4 14 -1 12 6 -7 19 32 57 50 51 10 -4 13 -2
8 5 -3 6 -1 14 5 18 8 4 9 3 5 -4 -4 -7 -2 -12 3 -12 6 0 11 7 11 15 0 8 5 15
11 15 5 0 7 5 3 12 -4 7 -3 8 4 4 7 -4 17 -4 23 0 8 4 7 9 -2 15 -10 6 -7 8 8
6 12 0 20 -4 18 -7 -2 -4 2 -7 10 -7 11 0 12 5 4 20 -6 10 -8 21 -5 25 3 3 6
1 6 -4 0 -5 9 -10 20 -11 21 -2 44 29 32 42 -4 5 -2 5 5 1 6 -3 15 -1 18 5 4
5 13 8 21 5 7 -3 16 -1 19 4 3 5 14 7 25 5 11 -2 20 1 20 7 0 5 -7 7 -15 4
-12 -4 -14 -2 -7 11 6 9 17 18 26 19 9 1 14 -1 11 -5 -2 -4 2 -8 10 -8 8 0 11
5 8 10 -4 7 1 8 12 3 16 -6 16 -4 4 11 -8 9 -9 14 -2 10 6 -4 14 -3 18 3 3 5
1 10 -6 10 -7 0 -10 2 -7 5 9 10 38 -7 31 -18 -3 -6 -1 -7 6 -3 7 5 9 17 5 29
-6 22 -6 22 10 2 13 -17 15 -18 16 -3 0 9 5 20 12 24 7 4 8 3 4 -4 -4 -7 -3
-12 1 -12 5 0 14 9 21 20 6 11 18 17 26 14 7 -3 21 2 30 11 9 9 16 13 16 8 0
-5 -5 -14 -10 -19 -7 -7 -7 -11 3 -11 7 0 14 9 14 20 1 11 7 25 14 31 8 8 9 5
4 -13 -6 -21 -5 -22 8 -10 8 8 13 17 11 20 -2 3 3 6 11 6 8 0 12 -4 10 -8 -4
-6 3 -6 34 0 2 1 -2 8 -9 17 -11 12 -11 15 1 12 8 -2 17 -7 21 -13 4 -6 8 -1
8 9 0 20 0 20 16 0 14 -18 15 -18 8 6 -6 24 -6 25 10 5 9 -11 16 -15 15 -10
-3 22 2 29 10 16 10 -15 31 -7 31 12 0 7 -4 6 -11 -3 -7 -10 -9 -11 -7 -2 2 8
7 13 12 12 5 -1 12 4 16 10 5 8 9 7 13 -5 5 -10 3 -14 -5 -9 -7 5 -8 3 -3 -6
6 -10 12 -7 27 11 15 20 17 21 11 4 -6 -18 -5 -18 10 -7 9 8 21 11 27 7 5 -3
10 -2 10 4 0 5 -6 12 -12 15 -7 3 -4 4 7 3 11 -1 23 -9 27 -17 6 -13 7 -12 7
2 1 11 8 15 26 13 26 -2 34 10 13 18 -8 4 -9 6 -2 6 6 1 17 -5 24 -13 13 -16
44 -10 34 6 -4 6 -1 8 7 6 8 -3 13 -11 11 -17 -1 -7 2 -10 8 -6 6 3 8 11 5 16
-6 8 8 13 28 10 4 -1 17 4 29 10 11 6 18 7 14 1 -3 -5 5 -12 18 -14 19 -4 23
-1 18 11 -3 9 -2 13 3 9 4 -4 14 -3 22 4 11 9 12 7 6 -8 -6 -17 -5 -17 10 -5
9 7 17 10 17 7 0 -4 9 -2 20 4 15 8 18 8 15 -3 -4 -9 3 -12 22 -11 16 1 29 3
31 3 1 1 4 0 5 -1 2 -2 11 3 20 10 12 10 17 10 23 1 4 -8 3 -9 -4 -5 -7 4 -12
2 -12 -3 0 -15 6 -14 38 6 26 17 26 17 13 0 -13 -17 -13 -17 12 -6 15 7 24 16
20 22 -3 6 -1 7 6 3 9 -6 9 -11 -1 -24z m2199 -8 c-3 -3 -12 -4 -19 -1 -8 3
-5 6 6 6 11 1 17 -2 13 -5z m-1807 -40 c0 -8 -5 -12 -10 -9 -6 4 -8 11 -5 16
9 14 15 11 15 -7z m204 -60 c3 -8 2 -12 -4 -9 -6 3 -10 10 -10 16 0 14 7 11
14 -7z m1706 -34 c8 -5 11 -10 5 -10 -5 0 -17 5 -25 10 -8 5 -10 10 -5 10 6 0
17 -5 25 -10z m-3410 -130 c0 -5 -5 -10 -11 -10 -5 0 -7 5 -4 10 3 6 8 10 11
10 2 0 4 -4 4 -10z m2085 -10 c-3 -5 -1 -10 4 -10 6 0 11 -5 11 -11 0 -8 -5
-8 -15 1 -13 11 -12 30 1 30 3 0 2 -4 -1 -10z m290 -220 c3 -5 1 -10 -4 -10
-6 0 -11 5 -11 10 0 6 2 10 4 10 3 0 8 -4 11 -10z m1366 -182 c11 -21 11 -22
-4 -9 -10 7 -17 17 -17 22 0 15 9 10 21 -13z m-1118 -63 c-3 -9 -8 -14 -10
-11 -3 3 -2 9 2 15 9 16 15 13 8 -4z m1152 -15 c3 -5 1 -10 -4 -10 -6 0 -11 5
-11 10 0 6 2 10 4 10 3 0 8 -4 11 -10z m-5515 -60 c0 -5 -2 -10 -4 -10 -3 0
-8 5 -11 10 -3 6 -1 10 4 10 6 0 11 -4 11 -10z m-74 -178 c-17 -16 -18 -16 -5
5 7 12 15 20 18 17 3 -2 -3 -12 -13 -22z m5699 -12 c3 -6 -1 -7 -9 -4 -18 7
-21 14 -7 14 6 0 13 -4 16 -10z m-4625 -44 c0 -2 -6 -9 -14 -15 -11 -9 -16 -9
-22 0 -4 7 -3 9 4 5 6 -3 13 -2 17 4 6 10 15 14 15 6z m4676 -131 c-3 -23 -12
-26 -13 -5 -1 11 2 20 7 20 4 0 7 -7 6 -15z m24 -69 c0 -3 -4 -8 -10 -11 -5
-3 -10 -1 -10 4 0 6 5 11 10 11 6 0 10 -2 10 -4z m-4857 -123 c-3 -7 -8 -13
-12 -13 -4 0 -8 6 -8 13 0 8 6 14 13 14 7 0 10 -6 7 -14z m3884 -55 c-3 -8 -6
-5 -6 6 -1 11 2 17 5 13 3 -3 4 -12 1 -19z m1018 -8 c3 -6 -1 -7 -9 -4 -18 7
-21 14 -7 14 6 0 13 -4 16 -10z m-948 -185 c0 -8 -4 -12 -9 -9 -5 3 -6 10 -3
15 9 13 12 11 12 -6z m-4079 -205 c-7 -11 -14 -17 -17 -15 -2 3 1 11 7 18 7 8
8 18 4 22 -4 5 -1 5 5 1 10 -5 10 -11 1 -26z m4136 -229 c3 -5 -1 -11 -9 -14
-9 -4 -12 -1 -8 9 6 16 10 17 17 5z m-4160 -87 c3 -8 2 -12 -4 -9 -6 3 -10 10
-10 16 0 14 7 11 14 -7z m4161 -22 c-3 -3 -11 0 -18 7 -9 10 -8 11 6 5 10 -3
15 -9 12 -12z m-4148 -138 c-3 -3 -12 -4 -19 -1 -8 3 -5 6 6 6 11 1 17 -2 13
-5z m-960 -20 c-3 -3 -12 -4 -19 -1 -8 3 -5 6 6 6 11 1 17 -2 13 -5z m6030
-280 c-3 -3 -12 -4 -19 -1 -8 3 -5 6 6 6 11 1 17 -2 13 -5z m-5986 -121 c13
-16 12 -17 -3 -4 -10 7 -18 15 -18 17 0 8 8 3 21 -13z m5940 -16 c-10 -9 -11
-8 -5 6 3 10 9 15 12 12 3 -3 0 -11 -7 -18z m-1037 -305 c3 -5 -1 -9 -9 -9 -8
0 -12 4 -9 9 3 4 7 8 9 8 2 0 6 -4 9 -8z m972 -58 c1 -9 0 -13 -4 -10 -3 4 -7
14 -8 22 -1 9 0 13 4 10 3 -4 7 -14 8 -22z m-1046 -74 c0 -5 -5 -10 -11 -10
-5 0 -7 5 -4 10 3 6 8 10 11 10 2 0 4 -4 4 -10z m1005 -49 c-3 -6 -11 -11 -16
-11 -5 0 -4 6 3 14 14 16 24 13 13 -3z m-5695 -31 c-12 -8 -12 -10 -1 -10 8 0
12 -3 8 -6 -9 -9 -28 6 -22 17 4 5 12 9 18 9 7 0 6 -4 -3 -10z m5680 -10 c-12
-23 -16 -24 -26 -8 -4 6 -3 8 3 5 6 -4 13 0 17 8 3 8 8 15 11 15 3 0 1 -9 -5
-20z m-1050 -30 c0 -5 -5 -10 -11 -10 -5 0 -7 5 -4 10 3 6 8 10 11 10 2 0 4
-4 4 -10z m-107 -167 c-7 -3 -11 -10 -9 -16 1 -7 1 -9 -1 -4 -3 4 -9 4 -15 1
-5 -3 -4 3 3 14 7 12 18 18 23 15 6 -4 6 -8 -1 -10z m-4416 -38 c0 -8 -4 -12
-9 -9 -5 3 -6 10 -3 15 9 13 12 11 12 -6z m1088 -16 c-4 -5 -12 -9 -18 -8 -9
0 -8 2 1 6 6 2 9 10 6 15 -4 7 -2 8 5 4 6 -4 9 -12 6 -17z m3255 -39 c0 -5 -5
-10 -11 -10 -5 0 -7 5 -4 10 3 6 8 10 11 10 2 0 4 -4 4 -10z m-2965 -270 c3
-5 1 -10 -4 -10 -6 0 -11 5 -11 10 0 6 2 10 4 10 3 0 8 -4 11 -10z m-1198 -15
c0 -8 -4 -12 -9 -9 -5 3 -6 10 -3 15 9 13 12 11 12 -6z m3767 -110 c-4 -8 -11
-12 -16 -9 -6 4 -5 10 3 15 19 12 19 11 13 -6z m-3687 -27 c2 -17 0 -19 -7 -8
-5 8 -6 18 -4 22 8 12 10 10 11 -14z m3514 -111 c-10 -9 -11 -8 -5 6 3 10 9
15 12 12 3 -3 0 -11 -7 -18z m-3412 -28 c11 -19 12 -21 0 -9 -8 8 -21 21 -29
29 -12 11 -12 12 -1 9 8 -2 21 -15 30 -29z m1681 -119 c0 -5 -5 -10 -11 -10
-5 0 -7 5 -4 10 3 6 8 10 11 10 2 0 4 -4 4 -10z m1246 -52 c4 -7 3 -8 -4 -4
-7 4 -12 2 -12 -5 0 -7 -3 -10 -6 -6 -6 5 3 27 11 27 2 0 7 -5 11 -12z m-2763
-13 c-3 -9 -8 -14 -10 -11 -3 3 -2 9 2 15 9 16 15 13 8 -4z m2717 5 c0 -5 -5
-10 -11 -10 -5 0 -7 5 -4 10 3 6 8 10 11 10 2 0 4 -4 4 -10z m-350 -76 c0 -8
-19 -13 -24 -6 -3 5 1 9 9 9 8 0 15 -2 15 -3z m3019 -8 c9 -10 8 -15 -2 -19
-8 -3 -13 3 -13 14 0 23 0 23 15 5z m75 -131 c-4 -8 -11 -12 -16 -9 -6 4 -5
10 3 15 19 12 19 11 13 -6z m-1484 -220 c-7 -9 -15 -13 -17 -11 -7 7 7 26 19
26 6 0 6 -6 -2 -15z m-3447 -50 c-3 -9 -8 -14 -10 -11 -3 3 -2 9 2 15 9 16 15
13 8 -4z m3367 1 c0 -3 -4 -8 -10 -11 -5 -3 -10 -1 -10 4 0 6 5 11 10 11 6 0
10 -2 10 -4z m-39 -29 c-10 -9 -11 -8 -5 6 3 10 9 15 12 12 3 -3 0 -11 -7 -18z
m1179 -77 c0 -5 -2 -10 -4 -10 -3 0 -8 5 -11 10 -3 6 -1 10 4 10 6 0 11 -4 11
-10z m690 -14 c0 -2 -8 -10 -17 -17 -16 -13 -17 -12 -4 4 13 16 21 21 21 13z
m-536 -24 c3 -5 -1 -9 -9 -9 -8 0 -12 4 -9 9 3 4 7 8 9 8 2 0 6 -4 9 -8z
m-4417 -17 c0 -8 -4 -12 -9 -9 -4 3 -8 9 -8 15 0 5 4 9 8 9 5 0 9 -7 9 -15z
m4513 0 c7 -9 8 -15 2 -15 -5 0 -12 7 -16 15 -3 8 -4 15 -2 15 2 0 9 -7 16
-15z m-4459 -18 c-6 -8 -7 -18 -3 -22 4 -5 1 -5 -6 -1 -10 6 -10 11 -1 22 6 8
14 14 16 14 3 0 0 -6 -6 -13z m4973 -76 c-2 -2 2 -11 9 -19 10 -13 9 -14 -8
-2 -12 7 -22 21 -22 31 -1 15 1 16 12 6 7 -6 11 -14 9 -16z m-2363 -14 c-10
-9 -11 -8 -5 6 3 10 9 15 12 12 3 -3 0 -11 -7 -18z m2334 -6 c3 -5 2 -12 -3
-15 -5 -3 -9 1 -9 9 0 17 3 19 12 6z m-2935 -195 c0 -3 -4 -8 -10 -11 -5 -3
-10 -1 -10 4 0 6 5 11 10 11 6 0 10 -2 10 -4z m-220 -36 c0 -5 -5 -10 -11 -10
-5 0 -7 5 -4 10 3 6 8 10 11 10 2 0 4 -4 4 -10z"/>
<path d="M2456 5652 c-3 -5 1 -9 9 -9 8 0 12 4 9 9 -3 4 -7 8 -9 8 -2 0 -6 -4
-9 -8z"/>
<path d="M2205 5509 c-4 -6 -5 -12 -2 -15 2 -3 7 2 10 11 7 17 1 20 -8 4z"/>
<path d="M2065 5410 c-3 -6 1 -7 9 -4 18 7 21 14 7 14 -6 0 -13 -4 -16 -10z"/>
<path d="M1990 5361 c-7 -15 -7 -22 2 -27 7 -4 10 -4 6 1 -4 4 0 13 9 20 11 8
12 14 5 19 -6 3 -16 -2 -22 -13z"/>
<path d="M4750 5166 c0 -2 8 -10 18 -17 15 -13 16 -12 3 4 -13 16 -21 21 -21
13z"/>
<path d="M1650 5000 c0 -5 5 -10 11 -10 5 0 7 5 4 10 -3 6 -8 10 -11 10 -2 0
-4 -4 -4 -10z"/>
<path d="M1460 4716 c0 -2 7 -7 16 -10 8 -3 12 -2 9 4 -6 10 -25 14 -25 6z"/>
<path d="M1435 4640 c3 -5 8 -10 11 -10 2 0 4 5 4 10 0 6 -5 10 -11 10 -5 0
-7 -4 -4 -10z"/>
<path d="M5106 4642 c-3 -5 1 -9 9 -9 8 0 15 4 15 9 0 4 -4 8 -9 8 -6 0 -12
-4 -15 -8z"/>
<path d="M5140 4560 c0 -5 5 -10 10 -10 6 0 10 5 10 10 0 6 -4 10 -10 10 -5 0
-10 -4 -10 -10z"/>
<path d="M5220 4342 c0 -5 7 -9 15 -9 8 0 12 4 9 9 -3 4 -9 8 -15 8 -5 0 -9
-4 -9 -8z"/>
<path d="M5310 3960 c0 -5 5 -10 11 -10 5 0 7 -5 3 -12 -4 -7 -3 -8 4 -4 6 4
9 13 5 21 -6 17 -23 20 -23 5z"/>
<path d="M5276 3152 c-3 -5 1 -9 9 -9 8 0 12 4 9 9 -3 4 -7 8 -9 8 -2 0 -6 -4
-9 -8z"/>
<path d="M5250 3009 c0 -5 -5 -7 -12 -3 -7 4 -8 3 -4 -5 6 -9 11 -9 22 0 17
14 18 19 4 19 -5 0 -10 -5 -10 -11z"/>
<path d="M1392 2721 c2 -7 7 -12 11 -12 12 1 9 15 -3 20 -7 2 -11 -2 -8 -8z"/>
<path d="M5078 2583 c7 -3 16 -2 19 1 4 3 -2 6 -13 5 -11 0 -14 -3 -6 -6z"/>
<path d="M1541 2455 c0 -5 9 -21 20 -35 16 -20 18 -21 10 -4 -6 12 -7 25 -3
29 4 5 2 5 -5 2 -6 -4 -14 -1 -16 5 -3 7 -6 9 -6 3z"/>
<path d="M1601 2353 c6 -7 17 -13 23 -12 7 0 6 2 -2 6 -6 2 -10 8 -8 12 3 4
-1 8 -9 8 -11 0 -12 -4 -4 -14z"/>
<path d="M4756 2141 c-3 -5 1 -11 9 -14 9 -4 12 -1 8 9 -6 16 -10 17 -17 5z"/>
<path d="M1860 2056 c0 -8 4 -17 9 -20 5 -4 7 3 4 14 -6 23 -13 26 -13 6z"/>
<path d="M1891 2034 c0 -11 3 -14 6 -6 3 7 2 16 -1 19 -3 4 -6 -2 -5 -13z"/>
<path d="M4625 2000 c-3 -6 1 -7 9 -4 18 7 21 14 7 14 -6 0 -13 -4 -16 -10z"/>
<path d="M2490 1623 c30 -21 48 -25 57 -11 3 7 1 8 -5 4 -7 -4 -12 -2 -12 4 0
7 -7 10 -15 7 -8 -4 -17 -2 -20 3 -4 6 -11 10 -18 10 -6 0 0 -8 13 -17z"/>
<path d="M4023 1621 c0 -11 5 -18 9 -15 4 3 5 11 1 19 -7 21 -12 19 -10 -4z"/>
<path d="M3906 1568 c3 -5 10 -6 15 -3 13 9 11 12 -6 12 -8 0 -12 -4 -9 -9z"/>
<path d="M3017 1495 c-4 -8 -3 -16 1 -19 4 -3 9 4 9 15 2 23 -3 25 -10 4z"/>
<path d="M3770 6859 c0 -5 5 -7 10 -4 6 3 10 8 10 11 0 2 -4 4 -10 4 -5 0 -10
-5 -10 -11z"/>
<path d="M4055 6801 c-3 -5 -2 -12 3 -15 5 -3 9 1 9 9 0 17 -3 19 -12 6z"/>
<path d="M4145 6770 c-3 -6 1 -7 9 -4 18 7 21 14 7 14 -6 0 -13 -4 -16 -10z"/>
<path d="M4380 6680 c-9 -6 -10 -10 -3 -10 6 0 15 5 18 10 8 12 4 12 -15 0z"/>
<path d="M4741 6514 c0 -11 3 -14 6 -6 3 7 2 16 -1 19 -3 4 -6 -2 -5 -13z"/>
<path d="M1566 6354 c-11 -8 -16 -14 -10 -14 13 0 39 18 34 24 -3 2 -14 -2
-24 -10z"/>
<path d="M4935 6360 c3 -5 8 -10 11 -10 2 0 4 5 4 10 0 6 -5 10 -11 10 -5 0
-7 -4 -4 -10z"/>
<path d="M1360 6196 c0 -9 -4 -16 -10 -16 -5 0 -10 -4 -10 -10 0 -13 27 -1 34
15 3 8 1 17 -4 20 -6 4 -10 -1 -10 -9z"/>
<path d="M1025 5860 c-3 -6 1 -7 9 -4 18 7 21 14 7 14 -6 0 -13 -4 -16 -10z"/>
<path d="M5750 5545 c13 -14 28 -25 34 -25 6 0 0 7 -12 16 -12 8 -20 20 -17
25 4 5 -2 9 -11 9 -15 0 -14 -4 6 -25z"/>
<path d="M730 5480 c0 -5 5 -10 10 -10 6 0 10 5 10 10 0 6 -4 10 -10 10 -5 0
-10 -4 -10 -10z"/>
<path d="M5830 5439 c0 -5 5 -7 10 -4 6 3 10 8 10 11 0 2 -4 4 -10 4 -5 0 -10
-5 -10 -11z"/>
<path d="M686 5393 c-6 -14 -5 -15 5 -6 7 7 10 15 7 18 -3 3 -9 -2 -12 -12z"/>
<path d="M5850 5386 c0 -2 6 -9 14 -15 11 -9 16 -9 22 0 4 8 3 9 -4 5 -7 -4
-12 -2 -12 3 0 6 -4 11 -10 11 -5 0 -10 -2 -10 -4z"/>
<path d="M6055 5000 c-3 -5 -1 -10 4 -10 6 0 11 5 11 10 0 6 -2 10 -4 10 -3 0
-8 -4 -11 -10z"/>
<path d="M256 4208 c3 -5 10 -6 15 -3 13 9 11 12 -6 12 -8 0 -12 -4 -9 -9z"/>
<path d="M253 4169 c-2 -23 3 -25 10 -4 4 8 3 16 -1 19 -4 3 -9 -4 -9 -15z"/>
<path d="M6307 4019 c7 -7 15 -10 18 -7 3 3 -2 9 -12 12 -14 6 -15 5 -6 -5z"/>
<path d="M226 3978 c3 -5 10 -6 15 -3 13 9 11 12 -6 12 -8 0 -12 -4 -9 -9z"/>
<path d="M220 3799 c0 -5 5 -7 10 -4 6 3 10 8 10 11 0 2 -4 4 -10 4 -5 0 -10
-5 -10 -11z"/>
<path d="M6305 3349 c-4 -6 -4 -13 -1 -16 3 -4 6 -1 6 6 0 7 5 9 12 5 7 -4 8
-3 4 4 -9 15 -13 15 -21 1z"/>
<path d="M6285 3270 c-3 -5 -1 -10 4 -10 6 0 11 5 11 10 0 6 -2 10 -4 10 -3 0
-8 -4 -11 -10z"/>
<path d="M6276 3142 c-3 -5 1 -9 9 -9 8 0 12 4 9 9 -3 4 -7 8 -9 8 -2 0 -6 -4
-9 -8z"/>
<path d="M6245 2990 c-3 -6 1 -7 9 -4 18 7 21 14 7 14 -6 0 -13 -4 -16 -10z"/>
<path d="M6230 2920 c0 -5 5 -10 11 -10 5 0 7 5 4 10 -3 6 -8 10 -11 10 -2 0
-4 -4 -4 -10z"/>
<path d="M6095 2480 c3 -5 8 -10 11 -10 2 0 4 5 4 10 0 6 -5 10 -11 10 -5 0
-7 -4 -4 -10z"/>
<path d="M6002 2285 c4 -4 3 -14 -3 -21 -7 -9 -6 -14 3 -20 7 -4 10 -4 6 1 -4
4 -3 14 3 21 7 9 6 14 -3 20 -7 4 -10 4 -6 -1z"/>
<path d="M570 2200 c0 -5 5 -10 11 -10 5 0 7 5 4 10 -3 6 -8 10 -11 10 -2 0
-4 -4 -4 -10z"/>
<path d="M676 1995 c-3 -8 -1 -15 4 -15 6 0 10 7 10 15 0 8 -2 15 -4 15 -2 0
-6 -7 -10 -15z"/>
<path d="M6135 1940 c3 -5 8 -10 11 -10 2 0 4 5 4 10 0 6 -5 10 -11 10 -5 0
-7 -4 -4 -10z"/>
<path d="M974 1598 c12 -21 13 -28 4 -29 -7 0 -3 -5 9 -11 13 -6 25 -19 28
-29 4 -11 10 -19 15 -19 11 0 -20 53 -51 90 l-21 25 16 -27z"/>
<path d="M6598 1223 c7 -3 16 -2 19 1 4 3 -2 6 -13 5 -11 0 -14 -3 -6 -6z"/>
<path d="M1500 1088 c0 -2 9 -11 20 -21 11 -9 20 -13 20 -7 0 5 -9 14 -20 20
-11 6 -20 9 -20 8z"/>
<path d="M6695 1060 c3 -5 8 -10 11 -10 2 0 4 5 4 10 0 6 -5 10 -11 10 -5 0
-7 -4 -4 -10z"/>
<path d="M1610 1010 c0 -5 5 -10 11 -10 5 0 7 5 4 10 -3 6 -8 10 -11 10 -2 0
-4 -4 -4 -10z"/>
<path d="M5830 986 c0 -2 7 -7 16 -10 8 -3 12 -2 9 4 -6 10 -25 14 -25 6z"/>
<path d="M6055 930 c3 -5 8 -10 11 -10 2 0 4 5 4 10 0 6 -5 10 -11 10 -5 0 -7
-4 -4 -10z"/>
<path d="M4701 866 c-9 -11 -9 -16 0 -22 7 -4 9 -3 5 4 -3 5 0 12 6 15 7 2 10
7 7 11 -3 4 -12 0 -18 -8z"/>
<path d="M6909 723 c-13 -16 -12 -17 4 -4 9 7 17 15 17 17 0 8 -8 3 -21 -13z"/>
<path d="M2114 718 c-4 -7 -4 -10 1 -6 4 4 16 3 26 -3 11 -5 19 -7 19 -5 0 3
-9 10 -19 16 -15 7 -22 7 -27 -2z"/>
<path d="M4355 680 c-3 -6 1 -7 9 -4 18 7 21 14 7 14 -6 0 -13 -4 -16 -10z"/>
<path d="M4270 660 c0 -5 5 -10 11 -10 5 0 7 5 4 10 -3 6 -8 10 -11 10 -2 0
-4 -4 -4 -10z"/>
<path d="M2300 645 c7 -8 17 -15 22 -15 5 0 3 7 -6 15 -8 8 -18 15 -22 15 -3
0 -1 -7 6 -15z"/>
<path d="M2950 496 c0 -2 8 -10 18 -17 15 -13 16 -12 3 4 -13 16 -21 21 -21
13z"/>
</g>
</svg>
